<svg width="61" height="61" viewBox="0 0 61 61" fill="none" xmlns="http://www.w3.org/2000/svg">
<path d="M29.1737 0.653299C29.4954 -0.218387 30.7283 -0.218387 31.05 0.653298L35.9827 14.019C36.1846 14.566 36.8099 14.825 37.3394 14.581L50.2784 8.61799C51.1223 8.22909 51.9941 9.10087 51.6052 9.94473L45.6422 22.8837C45.3981 23.4133 45.6571 24.0385 46.2042 24.2404L59.5698 29.1732C60.4415 29.4949 60.4415 30.7278 59.5698 31.0495L46.2042 35.9823C45.6571 36.1842 45.3981 36.8094 45.6422 37.339L51.6052 50.2779C51.9941 51.1218 51.1223 51.9936 50.2784 51.6047L37.3394 45.6417C36.8099 45.3976 36.1846 45.6566 35.9827 46.2037L31.05 59.5694C30.7283 60.441 29.4954 60.441 29.1737 59.5694L24.2409 46.2037C24.039 45.6566 23.4138 45.3976 22.8842 45.6417L9.94522 51.6047C9.10136 51.9936 8.22958 51.1218 8.61847 50.2779L14.5814 37.339C14.8255 36.8094 14.5665 36.1842 14.0195 35.9823L0.653787 31.0495C-0.217899 30.7278 -0.217899 29.4949 0.653786 29.1732L14.0195 24.2404C14.5665 24.0385 14.8255 23.4133 14.5814 22.8837L8.61847 9.94473C8.22958 9.10087 9.10136 8.22909 9.94521 8.61798L22.8842 14.5809C23.4138 14.825 24.039 14.566 24.2409 14.019L29.1737 0.653299Z" fill="#F0D894"/>
</svg>
