<svg width="343" height="90" viewBox="0 0 343 90" fill="none" xmlns="http://www.w3.org/2000/svg">
<path d="M0.0612264 87.0975C-0.209056 88.1696 0.440963 89.2579 1.51308 89.5281C2.58521 89.7984 3.67344 89.1484 3.94372 88.0763L2.00247 87.5869L0.0612264 87.0975ZM200.199 81.0804L200.402 79.0888L200.199 81.0804ZM335.816 79.7068C336.884 79.993 337.982 79.3592 338.268 78.2912L342.931 60.8873C343.217 59.8193 342.584 58.7215 341.516 58.4354C340.448 58.1492 339.35 58.783 339.064 59.851L334.919 75.3212L319.448 71.1759C318.38 70.8898 317.283 71.5236 316.996 72.5916C316.71 73.6595 317.344 74.7573 318.412 75.0435L335.816 79.7068ZM2.00247 87.5869L3.94372 88.0763C18.658 29.7095 70.232 4.00397 126.126 4.00397V2.00199V0C69.1072 0 15.3767 26.3461 0.0612264 87.0975L2.00247 87.5869ZM126.126 2.00199V4.00397C160.554 4.00397 184.13 23.8362 196.373 43.4627C202.511 53.301 205.698 62.9295 206.051 69.7967C206.229 73.2573 205.675 75.7527 204.7 77.2498C203.833 78.5809 202.528 79.3057 200.402 79.0888L200.199 81.0804L199.996 83.0721C203.501 83.4297 206.31 82.1142 208.055 79.435C209.692 76.9217 210.248 73.4366 210.05 69.5913C209.652 61.8467 206.145 51.562 199.771 41.3434C186.99 20.8561 162.267 0 126.126 0V2.00199ZM200.199 81.0804L200.402 79.0888C197.658 78.8087 196.116 77.9366 195.292 76.9373C194.478 75.9506 194.085 74.5029 194.353 72.4647C194.902 68.2756 198.153 62.4773 203.767 56.486C214.923 44.5806 234.351 33.0327 255.374 33.0327V31.0307V29.0288C232.975 29.0288 212.553 41.2545 200.846 53.7483C195.028 59.9567 191.095 66.5143 190.383 71.9441C190.019 74.7155 190.477 77.393 192.204 79.4855C193.92 81.5654 196.609 82.7265 199.996 83.0721L200.199 81.0804ZM255.374 31.0307V33.0327C297.876 33.0327 322.24 57.3658 334.6 78.7741L336.334 77.7731L338.068 76.7721C325.226 54.5289 299.718 29.0288 255.374 29.0288V31.0307Z" fill="#171C48"/>
</svg>
