<svg width="127" height="126" viewBox="0 0 127 126" fill="none" xmlns="http://www.w3.org/2000/svg">
<g filter="url(#filter0_d_6_1028)">
<path d="M54.8873 16.0768C56.0852 12.19 61.2877 11.4927 63.4668 14.9269L75.7093 34.2212C76.5974 35.6209 78.1489 36.4586 79.8064 36.4334L102.654 36.0856C106.721 36.0237 108.992 40.7561 106.399 43.8898L91.8323 61.4954C90.7756 62.7725 90.4583 64.507 90.9945 66.0755L98.3857 87.6977C99.7013 91.5463 95.9022 95.1685 92.1206 93.6709L70.8753 85.2575C69.3342 84.6471 67.5865 84.8813 66.2605 85.876L47.9805 99.587C44.7268 102.028 40.108 99.5337 40.3637 95.4745L41.8002 72.6691C41.9044 71.0147 41.1416 69.425 39.7859 68.4712L21.0971 55.3229C17.7706 52.9826 18.7151 47.8192 22.6547 46.808L44.7878 41.1269C46.3934 40.7148 47.6695 39.4981 48.1577 37.914L54.8873 16.0768Z" fill="#F0D894"/>
<path d="M48.9519 13.7858C51.9865 5.08748 63.8275 3.63404 68.8327 11.522L80.5986 30.0649L102.557 29.7317C112.046 29.5872 117.345 40.6292 111.295 47.9411L97.2952 64.8612L104.4 85.6421C107.469 94.622 98.6044 103.074 89.7811 99.5799L69.3622 91.4931L51.7934 104.671C44.2015 110.365 33.4249 104.546 34.0215 95.0749L35.401 73.1569L17.4404 60.5205C9.6786 55.0598 11.8828 43.0122 21.0751 40.6528L42.3455 35.192L48.8141 14.2051L48.9519 13.7858Z" stroke="white" stroke-width="12.6535"/>
</g>
<defs>
<filter id="filter0_d_6_1028" x="-1.24534e-05" y="0" width="126.594" height="126" filterUnits="userSpaceOnUse" color-interpolation-filters="sRGB">
<feFlood flood-opacity="0" result="BackgroundImageFix"/>
<feColorMatrix in="SourceAlpha" type="matrix" values="0 0 0 0 0 0 0 0 0 0 0 0 0 0 0 0 0 0 127 0" result="hardAlpha"/>
<feOffset dy="6.32673"/>
<feGaussianBlur stdDeviation="3.16337"/>
<feComposite in2="hardAlpha" operator="out"/>
<feColorMatrix type="matrix" values="0 0 0 0 0 0 0 0 0 0 0 0 0 0 0 0 0 0 0.25 0"/>
<feBlend mode="normal" in2="BackgroundImageFix" result="effect1_dropShadow_6_1028"/>
<feBlend mode="normal" in="SourceGraphic" in2="effect1_dropShadow_6_1028" result="shape"/>
</filter>
</defs>
</svg>
