<svg width="81" height="86" viewBox="0 0 81 86" fill="none" xmlns="http://www.w3.org/2000/svg">
<g filter="url(#filter0_d_6_1029)">
<mask id="path-1-outside-1_6_1029" maskUnits="userSpaceOnUse" x="3.42127" y="-0.724752" width="73.1129" height="79.1222" fill="black">
<rect fill="white" x="3.42127" y="-0.724752" width="73.1129" height="79.1222"/>
<path fill-rule="evenodd" clip-rule="evenodd" d="M40.1566 8.28917C45.3068 8.28917 49.4824 12.464 49.4826 17.6141V22.703L53.8898 20.1591C58.35 17.5839 64.053 19.1123 66.6282 23.5725C69.2032 28.0326 67.6756 33.7357 63.2157 36.311L58.8075 38.8549L63.2147 41.3999C67.6749 43.975 69.2033 49.679 66.6282 54.1393C64.0529 58.5992 58.3498 60.1268 53.8898 57.5518L49.4826 55.0068V60.0967C49.4825 65.2469 45.3069 69.4217 40.1566 69.4217C35.0066 69.4214 30.8317 65.2468 30.8317 60.0967V55.0068L26.4245 57.5518C21.9644 60.1268 16.2613 58.5992 13.6861 54.1393C11.1109 49.679 12.6393 43.975 17.0995 41.3999L21.5058 38.8549L17.0995 36.311C12.6393 33.7358 11.111 28.0328 13.6861 23.5725C16.2612 19.1123 21.9643 17.584 26.4245 20.1591L30.8317 22.703V17.6141C30.8319 12.4642 35.0067 8.28943 40.1566 8.28917Z"/>
</mask>
<path fill-rule="evenodd" clip-rule="evenodd" d="M40.1566 8.28917C45.3068 8.28917 49.4824 12.464 49.4826 17.6141V22.703L53.8898 20.1591C58.35 17.5839 64.053 19.1123 66.6282 23.5725C69.2032 28.0326 67.6756 33.7357 63.2157 36.311L58.8075 38.8549L63.2147 41.3999C67.6749 43.975 69.2033 49.679 66.6282 54.1393C64.0529 58.5992 58.3498 60.1268 53.8898 57.5518L49.4826 55.0068V60.0967C49.4825 65.2469 45.3069 69.4217 40.1566 69.4217C35.0066 69.4214 30.8317 65.2468 30.8317 60.0967V55.0068L26.4245 57.5518C21.9644 60.1268 16.2613 58.5992 13.6861 54.1393C11.1109 49.679 12.6393 43.975 17.0995 41.3999L21.5058 38.8549L17.0995 36.311C12.6393 33.7358 11.111 28.0328 13.6861 23.5725C16.2612 19.1123 21.9643 17.584 26.4245 20.1591L30.8317 22.703V17.6141C30.8319 12.4642 35.0067 8.28943 40.1566 8.28917Z" fill="#B8EF97"/>
<path d="M40.1566 8.28917V-3.15199e-05H40.1562L40.1566 8.28917ZM49.4826 17.6141H57.7718V17.6138L49.4826 17.6141ZM49.4826 22.703H41.1934V37.0589L53.6265 29.8821L49.4826 22.703ZM53.8898 20.1591L58.0337 27.3381L58.0344 27.3377L53.8898 20.1591ZM66.6282 23.5725L73.8068 19.4279L73.8068 19.4279L66.6282 23.5725ZM63.2157 36.311L67.3589 43.4904L67.3606 43.4894L63.2157 36.311ZM58.8075 38.8549L54.6642 31.6755L42.2275 38.8528L54.6624 46.0333L58.8075 38.8549ZM63.2147 41.3999L59.0696 48.5782L59.0701 48.5785L63.2147 41.3999ZM66.6282 54.1393L73.8066 58.2843L73.8068 58.2839L66.6282 54.1393ZM53.8898 57.5518L49.7446 64.7301L49.7452 64.7304L53.8898 57.5518ZM49.4826 55.0068L53.6277 47.8285L41.1934 40.6482V55.0068H49.4826ZM49.4826 60.0967L57.7718 60.0968V60.0967H49.4826ZM40.1566 69.4217L40.1562 77.7109H40.1566V69.4217ZM30.8317 60.0967H22.5425V60.0968L30.8317 60.0967ZM30.8317 55.0068H39.1209V40.6482L26.6865 47.8285L30.8317 55.0068ZM26.4245 57.5518L30.5691 64.7304L30.5696 64.7301L26.4245 57.5518ZM13.6861 54.1393L6.50741 58.2839L6.5076 58.2842L13.6861 54.1393ZM17.0995 41.3999L21.2441 48.5785L21.2454 48.5778L17.0995 41.3999ZM21.5058 38.8549L25.6516 46.0329L38.0816 38.8535L25.6504 31.6763L21.5058 38.8549ZM17.0995 36.311L21.2442 29.1323L21.2441 29.1323L17.0995 36.311ZM13.6861 23.5725L6.50741 19.4279L6.5074 19.428L13.6861 23.5725ZM26.4245 20.1591L22.28 27.3378L22.2805 27.3381L26.4245 20.1591ZM30.8317 22.703L26.6877 29.8821L39.1209 37.0589V22.703H30.8317ZM30.8317 17.6141L22.5425 17.6138V17.6141H30.8317ZM40.1566 8.28917V16.5784C40.7296 16.5784 41.1933 17.0429 41.1934 17.6144L49.4826 17.6141L57.7718 17.6138C57.7714 7.88515 49.8839 -3.15199e-05 40.1566 -3.15199e-05V8.28917ZM49.4826 17.6141H41.1934V22.703H49.4826H57.7718V17.6141H49.4826ZM49.4826 22.703L53.6265 29.8821L58.0337 27.3381L53.8898 20.1591L49.7458 12.98L45.3386 15.524L49.4826 22.703ZM53.8898 20.1591L58.0344 27.3377C58.5296 27.0518 59.1632 27.2212 59.4495 27.7172L66.6282 23.5725L73.8068 19.4279C68.9429 11.0034 58.1704 8.11609 49.7452 12.9804L53.8898 20.1591ZM66.6282 23.5725L59.4495 27.7171C59.736 28.2133 59.5657 28.8467 59.0707 29.1325L63.2157 36.311L67.3606 43.4894C75.7855 38.6248 78.6705 27.852 73.8068 19.4279L66.6282 23.5725ZM63.2157 36.311L59.0724 29.1315L54.6642 31.6755L58.8075 38.8549L62.9508 46.0344L67.3589 43.4904L63.2157 36.311ZM58.8075 38.8549L54.6624 46.0333L59.0696 48.5782L63.2147 41.3999L67.3599 34.2215L62.9527 31.6766L58.8075 38.8549ZM63.2147 41.3999L59.0701 48.5785C59.5656 48.8646 59.7357 49.499 59.4495 49.9947L66.6282 54.1393L73.8068 58.2839C78.6709 49.859 75.7843 39.0854 67.3593 34.2212L63.2147 41.3999ZM66.6282 54.1393L59.4498 49.9943C59.1639 50.4893 58.5304 50.6595 58.0344 50.3731L53.8898 57.5518L49.7452 64.7304C58.1693 69.5941 68.9419 66.709 73.8066 58.2843L66.6282 54.1393ZM53.8898 57.5518L58.0349 50.3734L53.6277 47.8285L49.4826 55.0068L45.3374 62.1852L49.7446 64.7301L53.8898 57.5518ZM49.4826 55.0068H41.1934V60.0967H49.4826H57.7718V55.0068H49.4826ZM49.4826 60.0967L41.1934 60.0966C41.1934 60.6678 40.7299 61.1325 40.1566 61.1325V69.4217V77.7109C49.8838 77.7109 57.7717 69.826 57.7718 60.0968L49.4826 60.0967ZM40.1566 69.4217L40.1571 61.1325C39.5844 61.1324 39.1209 60.6684 39.1209 60.0966L30.8317 60.0967L22.5425 60.0968C22.5426 69.8251 30.4289 77.7104 40.1562 77.7109L40.1566 69.4217ZM30.8317 60.0967H39.1209V55.0068H30.8317H22.5425V60.0967H30.8317ZM30.8317 55.0068L26.6865 47.8285L22.2793 50.3734L26.4245 57.5518L30.5696 64.7301L34.9768 62.1852L30.8317 55.0068ZM26.4245 57.5518L22.2799 50.3731C21.7837 50.6596 21.1503 50.4893 20.8645 49.9943L13.6861 54.1393L6.5076 58.2842C11.3723 66.7091 22.145 69.5941 30.5691 64.7304L26.4245 57.5518ZM13.6861 54.1393L20.8647 49.9947C20.5786 49.499 20.7486 48.8646 21.2441 48.5785L17.0995 41.3999L12.9549 34.2212C4.52998 39.0854 1.64331 49.859 6.50741 58.2839L13.6861 54.1393ZM17.0995 41.3999L21.2454 48.5778L25.6516 46.0329L21.5058 38.8549L17.3599 31.677L12.9537 34.2219L17.0995 41.3999ZM21.5058 38.8549L25.6504 31.6763L21.2442 29.1323L17.0995 36.311L12.9549 43.4896L17.3611 46.0336L21.5058 38.8549ZM17.0995 36.311L21.2441 29.1323C20.7483 28.846 20.5788 28.2124 20.8647 27.7171L13.6861 23.5725L6.5074 19.428C1.64313 27.8531 4.53033 38.6257 12.9549 43.4896L17.0995 36.311ZM13.6861 23.5725L20.8647 27.7171C21.151 27.2213 21.7846 27.0518 22.28 27.3378L26.4245 20.1591L30.569 12.9804C22.1439 8.11623 11.3714 11.0033 6.50741 19.4279L13.6861 23.5725ZM26.4245 20.1591L22.2805 27.3381L26.6877 29.8821L30.8317 22.703L34.9756 15.524L30.5684 12.98L26.4245 20.1591ZM30.8317 22.703H39.1209V17.6141H30.8317H22.5425V22.703H30.8317ZM30.8317 17.6141L39.1209 17.6144C39.1209 17.0424 39.5847 16.5784 40.1571 16.5784L40.1566 8.28917L40.1562 -3.15199e-05C30.4287 0.000460382 22.5429 7.88603 22.5425 17.6138L30.8317 17.6141Z" fill="white" mask="url(#path-1-outside-1_6_1029)"/>
</g>
<defs>
<filter id="filter0_d_6_1029" x="1.48048e-05" y="0" width="80.3143" height="86" filterUnits="userSpaceOnUse" color-interpolation-filters="sRGB">
<feFlood flood-opacity="0" result="BackgroundImageFix"/>
<feColorMatrix in="SourceAlpha" type="matrix" values="0 0 0 0 0 0 0 0 0 0 0 0 0 0 0 0 0 0 127 0" result="hardAlpha"/>
<feOffset dy="4.1382"/>
<feGaussianBlur stdDeviation="2.0691"/>
<feComposite in2="hardAlpha" operator="out"/>
<feColorMatrix type="matrix" values="0 0 0 0 0 0 0 0 0 0 0 0 0 0 0 0 0 0 0.25 0"/>
<feBlend mode="normal" in2="BackgroundImageFix" result="effect1_dropShadow_6_1029"/>
<feBlend mode="normal" in="SourceGraphic" in2="effect1_dropShadow_6_1029" result="shape"/>
</filter>
</defs>
</svg>
