<svg width="83" height="83" viewBox="0 0 83 83" fill="none" xmlns="http://www.w3.org/2000/svg">
<g filter="url(#filter0_d_6_1017)">
<mask id="path-1-outside-1_6_1017" maskUnits="userSpaceOnUse" x="3.91696" y="-0.0556641" width="75" height="75" fill="black">
<rect fill="white" x="3.91696" y="-0.0556641" width="75" height="75"/>
<path fill-rule="evenodd" clip-rule="evenodd" d="M20.5574 16.5848C32.078 5.06417 50.7565 5.06421 62.2771 16.5848C73.7977 28.1054 73.7977 46.7839 62.2771 58.3045C50.7565 69.8251 32.078 69.8251 20.5574 58.3045C9.03684 46.7839 9.03681 28.1054 20.5574 16.5848ZM19.8689 35.283C19.1524 35.2832 18.5722 35.8643 18.572 36.5809C18.572 37.2976 19.1522 37.8785 19.8689 37.8787H21.7566C22.175 41.0806 23.4715 45.602 26.2673 49.492C29.386 53.831 34.3734 57.3757 41.9304 57.3758C49.4793 57.3757 54.6268 53.8396 57.9236 49.5223C60.8918 45.635 62.3738 41.1026 62.8572 37.8787H64.5046C65.2214 37.8785 65.8035 37.2976 65.8035 36.5809C65.8032 35.8643 65.2212 35.2842 64.5046 35.284H58.3484C57.6317 35.284 57.0508 35.8642 57.0505 36.5809C57.0505 37.2977 57.6315 37.8787 58.3484 37.8787H60.2312C59.7462 40.7018 58.4117 44.6055 55.8611 47.9461C52.9715 51.7304 48.5412 54.779 41.9304 54.7791C35.3279 54.779 31.0802 51.7399 28.3757 47.9773C25.9757 44.6381 24.7973 40.7222 24.3777 37.8787H26.0261C26.7427 37.8784 27.324 37.2975 27.324 36.5809C27.3238 35.8644 26.7426 35.2834 26.0261 35.283H19.8689Z"/>
</mask>
<path fill-rule="evenodd" clip-rule="evenodd" d="M20.5574 16.5848C32.078 5.06417 50.7565 5.06421 62.2771 16.5848C73.7977 28.1054 73.7977 46.7839 62.2771 58.3045C50.7565 69.8251 32.078 69.8251 20.5574 58.3045C9.03684 46.7839 9.03681 28.1054 20.5574 16.5848ZM19.8689 35.283C19.1524 35.2832 18.5722 35.8643 18.572 36.5809C18.572 37.2976 19.1522 37.8785 19.8689 37.8787H21.7566C22.175 41.0806 23.4715 45.602 26.2673 49.492C29.386 53.831 34.3734 57.3757 41.9304 57.3758C49.4793 57.3757 54.6268 53.8396 57.9236 49.5223C60.8918 45.635 62.3738 41.1026 62.8572 37.8787H64.5046C65.2214 37.8785 65.8035 37.2976 65.8035 36.5809C65.8032 35.8643 65.2212 35.2842 64.5046 35.284H58.3484C57.6317 35.284 57.0508 35.8642 57.0505 36.5809C57.0505 37.2977 57.6315 37.8787 58.3484 37.8787H60.2312C59.7462 40.7018 58.4117 44.6055 55.8611 47.9461C52.9715 51.7304 48.5412 54.779 41.9304 54.7791C35.3279 54.779 31.0802 51.7399 28.3757 47.9773C25.9757 44.6381 24.7973 40.7222 24.3777 37.8787H26.0261C26.7427 37.8784 27.324 37.2975 27.324 36.5809C27.3238 35.8644 26.7426 35.2834 26.0261 35.283H19.8689Z" fill="#F18350"/>
<path d="M20.5574 16.5848L14.9397 10.967L14.9397 10.9671L20.5574 16.5848ZM62.2771 16.5848L67.8948 10.967L67.8948 10.967L62.2771 16.5848ZM62.2771 58.3045L67.8948 63.9222L67.8948 63.9222L62.2771 58.3045ZM20.5574 58.3045L14.9397 63.9222L14.9397 63.9222L20.5574 58.3045ZM19.8689 35.283V27.3384L19.8662 27.3384L19.8689 35.283ZM18.572 36.5809L10.6274 36.5785V36.5809H18.572ZM19.8689 37.8787L19.8662 45.8234H19.8689V37.8787ZM21.7566 37.8787L29.6343 36.8494L28.7307 29.9341H21.7566V37.8787ZM26.2673 49.492L19.8161 54.1287L19.8161 54.1287L26.2673 49.492ZM41.9304 57.3758L41.9304 65.3204H41.9305L41.9304 57.3758ZM57.9236 49.5223L64.2378 54.3439L64.2379 54.3437L57.9236 49.5223ZM62.8572 37.8787V29.9341H56.015L55.0004 36.7006L62.8572 37.8787ZM64.5046 37.8787V45.8234H64.5067L64.5046 37.8787ZM65.8035 36.5809H73.7481L73.7481 36.578L65.8035 36.5809ZM64.5046 35.284L64.5067 27.3393H64.5046V35.284ZM57.0505 36.5809L49.1059 36.578V36.5809H57.0505ZM60.2312 37.8787L68.0611 39.2239L69.6571 29.9341H60.2312V37.8787ZM55.8611 47.9461L62.1754 52.7676L62.1756 52.7674L55.8611 47.9461ZM41.9304 54.7791L41.9303 62.7237H41.9305L41.9304 54.7791ZM28.3757 47.9773L21.9245 52.614L21.9247 52.6143L28.3757 47.9773ZM24.3777 37.8787V29.9341H15.1745L16.5182 39.0386L24.3777 37.8787ZM26.0261 37.8787V45.8234L26.03 45.8234L26.0261 37.8787ZM27.324 36.5809H35.2686V36.5785L27.324 36.5809ZM26.0261 35.283L26.03 27.3384H26.0261V35.283ZM20.5574 16.5848L26.1751 22.2025C34.5931 13.7845 48.2414 13.7845 56.6594 22.2025L62.2771 16.5848L67.8948 10.967C53.2716 -3.65605 29.5629 -3.65614 14.9397 10.967L20.5574 16.5848ZM62.2771 16.5848L56.6594 22.2025C65.0774 30.6205 65.0774 44.2687 56.6594 52.6868L62.2771 58.3045L67.8948 63.9222C82.518 49.299 82.518 25.5902 67.8948 10.967L62.2771 16.5848ZM62.2771 58.3045L56.6594 52.6868C48.2414 61.1048 34.5931 61.1048 26.1751 52.6868L20.5574 58.3045L14.9397 63.9222C29.5629 78.5454 53.2716 78.5454 67.8948 63.9222L62.2771 58.3045ZM20.5574 58.3045L26.1751 52.6868C17.7571 44.2687 17.7571 30.6205 26.1751 22.2025L20.5574 16.5848L14.9397 10.9671C0.316503 25.5902 0.316565 49.299 14.9397 63.9222L20.5574 58.3045ZM19.8689 35.283L19.8662 27.3384C14.7566 27.3401 10.6289 31.4835 10.6274 36.5785L18.572 36.5809L26.5167 36.5832C26.5156 40.2451 23.5481 43.2264 19.8716 43.2276L19.8689 35.283ZM18.572 36.5809H10.6274C10.6274 41.6802 14.7588 45.8216 19.8662 45.8234L19.8689 37.8787L19.8716 29.9341C23.5456 29.9353 26.5167 32.915 26.5167 36.5809H18.572ZM19.8689 37.8787V45.8234H21.7566V37.8787V29.9341H19.8689V37.8787ZM21.7566 37.8787L13.8789 38.908C14.4207 43.0546 16.0682 48.914 19.8161 54.1287L26.2673 49.492L32.7186 44.8553C30.8748 42.2899 29.9292 39.1067 29.6343 36.8494L21.7566 37.8787ZM26.2673 49.492L19.8161 54.1287C24.2006 60.229 31.4506 65.3203 41.9304 65.3204L41.9304 57.3758L41.9305 49.4311C37.2961 49.4311 34.5713 47.433 32.7185 44.8552L26.2673 49.492ZM41.9304 57.3758L41.9305 65.3204C52.3529 65.3203 59.6967 60.2907 64.2378 54.3439L57.9236 49.5223L51.6094 44.7006C49.5569 47.3885 46.6056 49.4311 41.9303 49.4311L41.9304 57.3758ZM57.9236 49.5223L64.2379 54.3437C68.1645 49.2013 70.0707 43.3471 70.714 39.0568L62.8572 37.8787L55.0004 36.7006C54.6769 38.8581 53.619 42.0687 51.6092 44.7008L57.9236 49.5223ZM62.8572 37.8787V45.8234H64.5046V37.8787V29.9341H62.8572V37.8787ZM64.5046 37.8787L64.5067 45.8234C69.5997 45.8221 73.7481 41.6951 73.7481 36.5809H65.8035H57.8588C57.8588 32.9001 60.843 29.935 64.5026 29.9341L64.5046 37.8787ZM65.8035 36.5809L73.7481 36.578C73.7463 31.4613 69.5947 27.3406 64.5067 27.3393L64.5046 35.284L64.5026 43.2286C60.8478 43.2277 57.8602 40.2673 57.8588 36.5838L65.8035 36.5809ZM64.5046 35.284V27.3393H58.3484V35.284V43.2286H64.5046V35.284ZM58.3484 35.284V27.3393C53.2489 27.3393 49.1078 31.4709 49.1059 36.578L57.0505 36.5809L64.9952 36.5838C64.9939 40.2574 62.0145 43.2286 58.3484 43.2286V35.284ZM57.0505 36.5809H49.1059C49.1059 41.6855 53.2438 45.8234 58.3484 45.8234V37.8787V29.9341C62.0192 29.9341 64.9952 32.91 64.9952 36.5809H57.0505ZM58.3484 37.8787V45.8234H60.2312V37.8787V29.9341H58.3484V37.8787ZM60.2312 37.8787L52.4013 36.5335C52.088 38.3569 51.171 40.9973 49.5466 43.1248L55.8611 47.9461L62.1756 52.7674C65.6524 48.2137 67.4044 43.0468 68.0611 39.2239L60.2312 37.8787ZM55.8611 47.9461L49.5468 43.1246C47.9049 45.2748 45.6724 46.8344 41.9303 46.8344L41.9304 54.7791L41.9305 62.7237C51.41 62.7236 58.038 58.1859 62.1754 52.7676L55.8611 47.9461ZM41.9304 54.7791L41.9305 46.8344C39.9017 46.8344 38.5221 46.3819 37.5349 45.8361C36.5145 45.2721 35.6192 44.4428 34.8268 43.3404L28.3757 47.9773L21.9247 52.6143C25.8985 58.1428 32.4106 62.7236 41.9303 62.7237L41.9304 54.7791ZM28.3757 47.9773L34.827 43.3406C33.352 41.2884 32.5242 38.6636 32.2372 36.7188L24.3777 37.8787L16.5182 39.0386C17.0705 42.7808 18.5994 47.9877 21.9245 52.614L28.3757 47.9773ZM24.3777 37.8787V45.8234H26.0261V37.8787V29.9341H24.3777V37.8787ZM26.0261 37.8787L26.03 45.8234C31.1274 45.8209 35.2686 41.6891 35.2686 36.5809H27.324H19.3793C19.3793 32.906 22.358 29.9359 26.0222 29.9341L26.0261 37.8787ZM27.324 36.5809L35.2686 36.5785C35.2671 31.4747 31.1297 27.3408 26.03 27.3384L26.0261 35.283L26.0223 43.2276C22.3555 43.2259 19.3804 40.2541 19.3793 36.5832L27.324 36.5809ZM26.0261 35.283V27.3384H19.8689V35.283V43.2277H26.0261V35.283Z" fill="white" mask="url(#path-1-outside-1_6_1017)"/>
<path d="M49.9668 34.7645V27.0216C49.9668 25.9463 50.8388 25.0742 51.9141 25.0742C52.9895 25.0742 53.8615 25.9463 53.8615 27.0216V34.7645C53.8615 35.8399 52.9895 36.7119 51.9141 36.7119C50.8388 36.7119 49.9668 35.8399 49.9668 34.7645Z" fill="white"/>
<path d="M31.4351 34.7645V27.0216C31.4351 25.9463 32.3071 25.0742 33.3825 25.0742C34.4578 25.0742 35.3298 25.9463 35.3298 27.0216V34.7645C35.3298 35.8399 34.4578 36.7119 33.3825 36.7119C32.3071 36.7119 31.4351 35.8399 31.4351 34.7645Z" fill="white"/>
</g>
<defs>
<filter id="filter0_d_6_1017" x="-3.09944e-06" y="0" width="82.8345" height="82.8343" filterUnits="userSpaceOnUse" color-interpolation-filters="sRGB">
<feFlood flood-opacity="0" result="BackgroundImageFix"/>
<feColorMatrix in="SourceAlpha" type="matrix" values="0 0 0 0 0 0 0 0 0 0 0 0 0 0 0 0 0 0 127 0" result="hardAlpha"/>
<feOffset dy="3.97232"/>
<feGaussianBlur stdDeviation="1.98616"/>
<feComposite in2="hardAlpha" operator="out"/>
<feColorMatrix type="matrix" values="0 0 0 0 0 0 0 0 0 0 0 0 0 0 0 0 0 0 0.25 0"/>
<feBlend mode="normal" in2="BackgroundImageFix" result="effect1_dropShadow_6_1017"/>
<feBlend mode="normal" in="SourceGraphic" in2="effect1_dropShadow_6_1017" result="shape"/>
</filter>
</defs>
</svg>
