<svg width="166" height="306" viewBox="0 0 166 306" fill="none" xmlns="http://www.w3.org/2000/svg">
<path d="M82 306C65.6667 306 51.3333 304 39 300C26.6667 296.333 17 288.5 10 276.5C3.33333 264.167 0 246 0 222V67C0 49.3333 3.33333 35.6667 10 26C17 16.3333 26.6667 9.66667 39 6.00002C51.6667 2.00001 66.1667 0 82.5 0C98.5 0 112.667 2.00001 125 6.00002C137.667 10 147.5 16.8333 154.5 26.5C161.833 36.1667 165.5 49.6667 165.5 67V221.5C165.5 245.833 161.833 264.167 154.5 276.5C147.5 288.5 137.667 296.333 125 300C112.667 304 98.3333 306 82 306ZM82 272C87 272 91.3333 271.167 95 269.5C99 267.833 102 265 104 261C106.333 256.667 107.5 250.833 107.5 243.5V64.5C107.5 57.1667 106.333 51.5 104 47.5C102 43.1667 99 40.1667 95 38.5C91.3333 36.8334 87 36 82 36C77 36 72.6667 36.8334 69 38.5C65.3333 40.1667 62.3333 43.1667 60 47.5C58 51.5 57 57.1667 57 64.5V243.5C57 250.833 58 256.667 60 261C62.3333 265 65.3333 267.833 69 269.5C72.6667 271.167 77 272 82 272Z" fill="#828BE6"/>
</svg>
