<svg width="181" height="296" viewBox="0 0 181 296" fill="none" xmlns="http://www.w3.org/2000/svg">
<path d="M0 295.5V0H108C127.667 0 142.5 4.50001 152.5 13.5C162.5 22.1667 167.5 34.3333 167.5 50V96C167.5 111.667 163.333 124.833 155 135.5C146.667 146.167 133.667 152.333 116 154C127.333 155.667 135.333 159.5 140 165.5C145 171.167 149.333 180.5 153 193.5L181 295.5H116.5L95 197.5C93 189.5 90.6667 182.833 88 177.5C85.6667 171.833 82.1667 169 77.5 169H60.5V295.5H0ZM60.5 128.5H84.5C93.8333 128.5 100.5 126 104.5 121C108.5 115.667 110.5 107.333 110.5 96V60.5C110.5 49.8333 108.667 42.3333 105 38C101.333 33.6667 95.6667 31.5 88 31.5H60.5V128.5Z" fill="#828BE6"/>
</svg>
