<svg width="165" height="296" viewBox="0 0 165 296" fill="none" xmlns="http://www.w3.org/2000/svg">
<path d="M0 295.5V0H105C124.667 0 139.5 4.50001 149.5 13.5C159.833 22.1667 165 34.3333 165 50V101C165 114.333 163.333 126.833 160 138.5C156.667 149.833 150.667 159 142 166C133.333 173 120.833 176.5 104.5 176.5H60.5V295.5H0ZM60.5 144.5H83C91 144.5 97 140.667 101 133C105 125.333 107 112.667 107 95V75C107 59.3333 105.333 48.1667 102 41.5C98.6667 34.8333 93.8333 31.5 87.5 31.5H60.5V144.5Z" fill="#828BE6"/>
</svg>
