<svg width="166" height="319" viewBox="0 0 166 319" fill="none" xmlns="http://www.w3.org/2000/svg">
<path d="M39.1178 313.705C51.4884 317.235 65.8651 319 82.2477 319C98.6304 319 113.007 317.235 125.378 313.705C138.083 310.47 147.946 303.557 154.967 292.968C162.322 282.085 166 265.907 166 244.434V40.592C166 40.592 154.967 49.8575 139.921 50.2988C124.876 50.74 108.326 46.3278 108.326 46.3278L107.825 263.848C107.825 270.319 106.655 275.467 104.314 279.29C102.308 282.82 99.2991 285.32 95.287 286.791C91.6093 288.262 87.2628 288.997 82.2477 288.997C77.2326 288.997 72.8862 288.262 69.2085 286.791C65.5307 285.32 62.5216 282.82 60.1813 279.29C58.1752 275.467 57.1722 270.319 57.1722 263.848L56.6707 0H0V244.876C0 266.054 3.3434 282.085 10.0302 292.968C17.0514 303.557 26.7472 310.47 39.1178 313.705Z" fill="#828BE6"/>
</svg>
