<svg width="166" height="651" viewBox="0 0 166 651" fill="none" xmlns="http://www.w3.org/2000/svg">
<path d="M82.2477 651C65.8651 651 51.4884 649.204 39.1178 645.612C26.7472 642.32 17.0514 635.286 10.0302 624.511C3.3434 613.437 0 597.124 0 575.574L0 60.1614C0 44.2979 3.3434 32.0262 10.0302 23.3462C17.0514 14.6662 26.7472 8.68001 39.1178 5.3876C51.8228 1.79587 66.3666 0 82.7492 0C98.7976 0 113.007 1.79587 125.378 5.3876C138.083 8.97931 147.946 15.1152 154.967 23.7952C162.322 32.4752 166 44.5972 166 60.1614V575.125C166 596.974 162.322 613.437 154.967 624.511C147.946 635.286 138.083 642.32 125.378 645.612C113.007 649.204 98.6304 651 82.2477 651ZM82.2477 620.47C87.2628 620.47 91.6093 619.722 95.287 618.226C99.2991 616.729 102.308 614.185 104.314 610.593C106.655 606.702 107.825 601.464 107.825 594.879V57.9166C107.825 51.3317 106.655 46.2435 104.314 42.6517C102.308 38.7607 99.2991 36.0669 95.287 34.5704C91.6093 33.0738 87.2628 32.3255 82.2477 32.3255C77.2326 32.3255 72.8862 33.0738 69.2085 34.5704C65.5307 36.0669 62.5216 38.7607 60.1813 42.6517C58.1752 46.2435 57.1722 51.3317 57.1722 57.9166V594.879C57.1722 601.464 58.1752 606.702 60.1813 610.593C62.5216 614.185 65.5307 616.729 69.2085 618.226C72.8862 619.722 77.2326 620.47 82.2477 620.47Z" fill="#828BE6"/>
</svg>
