<svg width="85" height="90" viewBox="0 0 85 90" fill="none" xmlns="http://www.w3.org/2000/svg">
<path d="M39.0472 13.9709L41.7489 1.66897C42.2467 -0.597654 45.5119 -0.539021 45.9274 1.744L48.0206 13.2475C50.2866 25.7 59.7419 35.6335 72.1054 38.5501L83.3602 41.2052C85.5536 41.7227 85.5439 44.8352 83.3472 45.339L72.6127 47.801C59.9897 50.6962 50.369 60.8933 48.2513 73.6219L45.9323 87.5612C45.545 89.889 42.2051 89.9442 41.7405 87.6305L38.7961 72.9669C36.3094 60.5822 26.7081 50.8326 14.3246 48.1174L1.67281 45.3434C-0.550775 44.8559 -0.560256 41.7012 1.66036 41.2004L14.8802 38.219C26.9767 35.491 36.3968 26.0392 39.0472 13.9709Z" fill="#F0D894"/>
</svg>
