<svg width="98" height="103" viewBox="0 0 98 103" fill="none" xmlns="http://www.w3.org/2000/svg">
<path d="M45.0192 16.1076L48.1341 1.92422C48.708 -0.689059 52.4726 -0.621459 52.9516 2.01073L55.365 15.2736C57.9775 29.6306 68.8789 41.0833 83.1333 44.446L96.1094 47.5072C98.6383 48.1038 98.6271 51.6923 96.0945 52.2732L83.7182 55.1118C69.1646 58.4497 58.0725 70.2064 55.631 84.8817L52.9572 100.953C52.5107 103.637 48.66 103.7 48.1243 101.033L44.7297 84.1265C41.8626 69.8477 30.7929 58.607 16.5154 55.4766L1.92866 52.2783C-0.635012 51.7162 -0.645942 48.079 1.9143 47.5017L17.156 44.0643C31.1025 40.919 41.9634 30.0217 45.0192 16.1076Z" fill="#F0D894"/>
</svg>
