<svg width="274" height="233" viewBox="0 0 274 233" fill="none" xmlns="http://www.w3.org/2000/svg">
<g filter="url(#filter0_d_75_23438)">
<path d="M138.982 12.9108C143.699 11.653 148.186 13.5716 151.914 16.1048C155.624 18.6267 158.902 21.997 161.061 23.8861C162.55 25.1893 164.452 25.5035 166.351 25.294C168.258 25.0835 170.029 24.3547 171.046 23.761C171.585 23.4466 172.277 23.6285 172.591 24.1675C172.905 24.7064 172.724 25.3978 172.185 25.7122C170.943 26.4366 168.872 27.2893 166.599 27.5402C166.157 27.589 165.703 27.6142 165.243 27.6116C166.24 28.4417 167.104 29.2818 167.802 30.1031C171.643 34.6224 177.406 34.3393 179.807 33.6332C183.526 33.5391 193.026 34.8203 201.274 40.6953C209.521 46.5704 210.736 60.4668 210.312 66.6811C212.911 70.2965 217.044 70.6363 218.786 70.3538C221.658 69.3182 229.689 70.1561 238.84 81.7932C247.544 92.8608 241.607 105.059 236.996 110.52C240.377 110.985 245.236 112.523 249.385 115.736C253.726 119.098 257.295 124.31 257.483 131.877C257.666 139.257 255.163 143.993 251.597 146.748C251.2 147.055 250.792 147.332 250.379 147.585C253.577 151.878 255.945 159.368 251.975 169.779C247.003 182.816 232.442 180.17 225.33 177.053C225.87 177.83 225.604 180.873 221.752 189.128C217.006 199.296 205.746 197.413 200.709 195.201C195.964 205.708 186.492 203.157 182.349 200.568C177.378 207.686 169.873 206.923 166.672 204.522C159.47 214.973 150.29 207.865 148.03 204.522C134.331 217.091 126.186 206.782 122.89 203.251C123.078 206.876 118.513 210.324 113.711 211.442C105.463 213.363 100.483 209.135 99.7292 206.076C82.782 211.273 75.9079 201.651 74.5896 196.19C57.3037 200.257 51.5701 184.797 50.8638 176.559C42.955 186.049 50.769 192.941 55.665 195.201C31.7126 200.059 30.8089 176.134 33.351 163.565C31.392 162.459 29.7682 161.241 28.4335 159.946C26.0984 158.927 23.1101 157.121 20.7109 154.548C17.9495 151.585 15.8376 147.441 16.7157 142.306C17.5754 137.281 20.5231 134.103 23.773 132.239C24.1643 132.014 24.5608 131.808 24.9591 131.619C24.4734 131.3 23.9938 130.945 23.5287 130.549C20.3726 127.864 18.0182 123.514 17.9566 116.979C17.893 110.228 21.0027 105.603 24.877 102.66C28.6708 99.7786 33.188 98.4995 36.2421 98.1862C36.2518 98.1852 36.2618 98.1851 36.2715 98.1842C36.6084 97.8042 36.9525 97.4242 37.3052 97.046C41.9547 92.0596 48.6437 88.5662 54.514 86.3394C51.143 82.9997 47.5813 76.9052 48.0411 67.9845C48.3715 61.5764 52.0902 57.6348 56.3656 55.4127C60.5498 53.238 65.3763 52.6228 68.568 52.6994C68.6568 52.7015 68.7442 52.7111 68.8298 52.7238C70.8178 49.63 73.2646 46.5709 76.1441 43.52C85.6347 33.4646 103.636 36.1286 111.451 38.7178C109.944 34.9045 107.835 26.0068 111.451 20.9227C115.97 14.5675 126.986 18.8042 121.62 24.8768C117.327 29.7351 118.513 35.0929 119.643 37.1642C119.643 37.159 119.644 37.1538 119.645 37.1486C119.519 36.923 119.469 36.6537 119.523 36.3806C121.992 23.8907 130.02 15.3009 138.982 12.9108ZM25.8814 135.913C23.52 137.268 21.5018 139.459 20.8926 143.02C20.3245 146.342 21.5539 149.124 23.5727 151.394C22.3902 146.06 23.8191 140.449 25.9821 135.858C25.9487 135.876 25.9147 135.894 25.8814 135.913ZM243.269 116.892C252.026 126.533 248.474 138.048 244.914 143.369C245.537 143.469 246.356 143.838 247.251 144.467C247.854 144.179 248.447 143.827 249.007 143.395C251.315 141.611 253.403 138.273 253.247 131.983C253.096 125.879 250.285 121.793 246.791 119.086C245.664 118.214 244.467 117.489 243.269 116.892ZM32.1287 103.5C30.5543 104.085 28.9167 104.912 27.4399 106.034C24.4719 108.288 22.1439 111.714 22.1931 116.939C22.2444 122.379 24.1509 125.516 26.2742 127.322C27.3537 128.24 28.5398 128.855 29.6646 129.245C25.0146 120.672 26.48 111.929 32.1287 103.5ZM66.3901 56.9975C63.9175 57.1902 60.916 57.823 58.3197 59.1724C55.0276 60.8835 52.5074 63.6513 52.2727 68.2023C51.7824 77.7146 56.6416 83.0573 59.2166 84.7546C61.2637 84.1496 63.0572 83.7314 64.4214 83.4874C61.4101 73.997 62.2316 65.3322 66.3901 56.9975ZM150.644 17.9739C147.098 15.5641 143.322 14.0927 139.565 15.0945C133.652 16.6714 128 21.3545 124.518 28.4714C128.151 25.1692 133.501 22.7165 139.698 20.9227C145.022 19.3814 150.799 20.2383 155.855 22.1831C154.285 20.7583 152.544 19.2653 150.644 17.9739Z" fill="#F18350"/>
<path d="M138.982 12.9108L135.76 0.82675L135.76 0.826796L138.982 12.9108ZM151.914 16.1048L158.944 5.76125L158.943 5.76113L151.914 16.1048ZM161.061 23.8861L152.825 33.2979L152.826 33.2986L161.061 23.8861ZM166.351 25.294L167.722 37.7248L167.723 37.7248L166.351 25.294ZM171.046 23.761L177.348 34.5638L177.348 34.5637L171.046 23.761ZM172.591 24.1675L183.397 17.8705L183.394 17.8659L172.591 24.1675ZM172.185 25.7122L178.486 36.5149L178.486 36.5149L172.185 25.7122ZM166.599 27.5402L167.971 39.9711L167.971 39.971L166.599 27.5402ZM165.243 27.6116L165.313 15.1055L130.442 14.9085L157.24 37.2224L165.243 27.6116ZM167.802 30.1031L177.331 22.0034L177.331 22.0033L167.802 30.1031ZM179.807 33.6332L179.49 21.1309L177.851 21.1723L176.278 21.635L179.807 33.6332ZM201.274 40.6953L208.53 30.5092L208.529 30.5091L201.274 40.6953ZM210.312 66.6811L197.835 65.8305L197.529 70.3234L200.157 73.9802L210.312 66.6811ZM218.786 70.3538L220.788 82.6989L221.935 82.5128L223.029 82.1185L218.786 70.3538ZM238.84 81.7932L248.671 74.0623L248.671 74.0623L238.84 81.7932ZM236.996 110.52L227.44 102.451L212.783 119.809L235.289 122.909L236.996 110.52ZM249.385 115.736L257.042 105.848L257.042 105.848L249.385 115.736ZM257.483 131.877L269.985 131.567V131.567L257.483 131.877ZM251.597 146.748L259.242 156.645L259.242 156.645L251.597 146.748ZM250.379 147.585L243.835 136.928L232.179 144.086L240.35 155.056L250.379 147.585ZM251.975 169.779L263.66 174.235L263.66 174.235L251.975 169.779ZM225.33 177.053L230.349 165.598L189.799 147.829L215.059 184.188L225.33 177.053ZM221.752 189.128L233.085 194.416L233.085 194.416L221.752 189.128ZM200.709 195.201L205.738 183.75L194.405 178.773L189.311 190.053L200.709 195.201ZM182.349 200.568L188.977 189.962L178.9 183.665L172.096 193.407L182.349 200.568ZM166.672 204.522L174.175 194.517L163.761 186.707L156.375 197.425L166.672 204.522ZM148.03 204.522L158.39 197.517L150.264 185.499L139.575 195.307L148.03 204.522ZM122.89 203.251L132.033 194.717L108.622 169.635L110.401 203.899L122.89 203.251ZM113.711 211.442L116.547 223.623L116.547 223.623L113.711 211.442ZM99.7292 206.076L111.873 203.085L108.71 190.24L96.0625 194.119L99.7292 206.076ZM74.5896 196.19L86.7466 193.255L83.8287 181.168L71.7254 184.016L74.5896 196.19ZM50.8638 176.559L63.3244 175.49L60.7264 145.188L41.2561 168.552L50.8638 176.559ZM55.665 195.201L58.151 207.458L95.6055 199.861L60.9059 183.846L55.665 195.201ZM33.351 163.565L45.6091 166.044L47.4098 157.141L39.5 152.675L33.351 163.565ZM28.4335 159.946L37.1438 150.972L35.5157 149.391L33.4363 148.484L28.4335 159.946ZM20.7109 154.548L11.5627 163.075L11.5631 163.076L20.7109 154.548ZM16.7157 142.306L4.38848 140.197L4.38837 140.198L16.7157 142.306ZM23.773 132.239L17.5485 121.391L17.5484 121.391L23.773 132.239ZM24.9591 131.619L30.3129 142.921L50.4273 133.394L31.8286 121.168L24.9591 131.619ZM23.5287 130.549L15.4252 140.075L15.4254 140.075L23.5287 130.549ZM17.9566 116.979L5.45081 117.097L5.45081 117.097L17.9566 116.979ZM24.877 102.66L17.3126 92.7009L17.3124 92.701L24.877 102.66ZM36.2421 98.1862L34.9685 85.7449L34.966 85.7452L36.2421 98.1862ZM36.2715 98.1842L37.3769 110.642L42.3303 110.202L45.6293 106.481L36.2715 98.1842ZM37.3052 97.046L28.1583 88.5171L28.1582 88.5171L37.3052 97.046ZM54.514 86.3394L58.9496 98.0327L77.1269 91.1375L63.316 77.4549L54.514 86.3394ZM48.0411 67.9845L35.5513 67.3404L35.5513 67.3408L48.0411 67.9845ZM56.3656 55.4127L50.5981 44.3157L50.5979 44.3158L56.3656 55.4127ZM68.568 52.6994L68.8684 40.1967L68.8679 40.1967L68.568 52.6994ZM68.8298 52.7238L66.9984 65.0953L74.9862 66.2778L79.3514 59.4844L68.8298 52.7238ZM76.1441 43.52L67.049 34.9358L67.049 34.9359L76.1441 43.52ZM111.451 38.7178L107.518 50.5894L132.911 59.0028L123.082 34.1227L111.451 38.7178ZM111.451 20.9227L101.259 13.6749L101.259 13.6749L111.451 20.9227ZM121.62 24.8768L130.991 33.1584L130.992 33.1578L121.62 24.8768ZM119.643 37.1642L108.663 43.1529L126.771 76.351L132.027 38.9025L119.643 37.1642ZM119.645 37.1486L132.027 38.9015L132.617 34.7388L130.572 31.0655L119.645 37.1486ZM119.523 36.3806L107.254 33.9553L107.254 33.9592L119.523 36.3806ZM25.8814 135.913L19.657 125.066L19.6567 125.066L25.8814 135.913ZM20.8926 143.02L8.5654 140.911L8.56529 140.912L20.8926 143.02ZM23.5727 151.394L14.2271 159.704L46.1954 195.653L35.7825 148.687L23.5727 151.394ZM25.9821 135.858L37.296 141.187L53.9632 105.804L19.8593 124.953L25.9821 135.858ZM243.269 116.892L248.848 105.699L234.012 125.3L243.269 116.892ZM244.914 143.369L234.519 136.414L223.667 152.634L242.937 155.718L244.914 143.369ZM247.251 144.467L240.051 154.693L246.04 158.91L252.648 155.749L247.251 144.467ZM249.007 143.395L256.652 153.292L256.652 153.292L249.007 143.395ZM253.247 131.983L265.749 131.673L265.749 131.673L253.247 131.983ZM246.791 119.086L254.448 109.198L254.448 109.198L246.791 119.086ZM32.1287 103.5L42.5179 110.463L64.0722 78.2994L27.7756 91.7762L32.1287 103.5ZM27.4399 106.034L19.8754 96.0747L19.8753 96.0747L27.4399 106.034ZM22.1931 116.939L9.68732 117.056L9.68732 117.057L22.1931 116.939ZM26.2742 127.322L18.1706 136.848L18.1711 136.848L26.2742 127.322ZM29.6646 129.245L25.5707 141.062L56.0253 151.613L40.6578 123.282L29.6646 129.245ZM66.3901 56.9975L77.5808 62.581L87.4445 42.812L65.4182 44.529L66.3901 56.9975ZM58.3197 59.1724L52.5522 48.0753L52.552 48.0755L58.3197 59.1724ZM52.2727 68.2023L39.783 67.5582L39.783 67.5586L52.2727 68.2023ZM59.2166 84.7546L52.3337 95.1965L57.1869 98.3956L62.7613 96.7481L59.2166 84.7546ZM64.4214 83.4874L66.6234 95.7983L80.6522 93.289L76.342 79.705L64.4214 83.4874ZM150.644 17.9739L157.673 7.63038L157.673 7.63024L150.644 17.9739ZM139.565 15.0945L136.342 3.01046L136.342 3.01052L139.565 15.0945ZM124.518 28.4714L113.284 22.9752L132.931 37.7254L124.518 28.4714ZM139.698 20.9227L136.22 8.90946L136.22 8.90955L139.698 20.9227ZM155.855 22.1831L151.365 33.8556L164.259 12.9214L155.855 22.1831ZM138.982 12.9108L142.205 24.9949C141.953 25.062 141.887 24.966 142.297 25.0863C142.812 25.2375 143.669 25.623 144.884 26.4485L151.914 16.1048L158.943 5.76113C154.217 2.54875 145.792 -1.8484 135.76 0.82675L138.982 12.9108ZM151.914 16.1048L144.884 26.4483C146.065 27.251 147.334 28.3003 148.716 29.5401C149.399 30.1536 150.048 30.7564 150.733 31.3928C151.372 31.9859 152.121 32.6818 152.825 33.2979L161.061 23.8861L169.296 14.4742C168.236 13.5464 163.478 8.84295 158.944 5.76125L151.914 16.1048ZM161.061 23.8861L152.826 33.2986C157.829 37.6752 163.694 38.1694 167.722 37.7248L166.351 25.294L164.979 12.8631C165.21 12.8377 167.272 12.7033 169.296 14.4735L161.061 23.8861ZM166.351 25.294L167.723 37.7248C171.653 37.291 175.087 35.8827 177.348 34.5638L171.046 23.761L164.745 12.9582C164.816 12.9166 164.867 12.8894 164.897 12.8744C164.926 12.859 164.943 12.8512 164.948 12.8492C164.953 12.8467 164.935 12.8549 164.903 12.8662C164.889 12.8712 164.875 12.8754 164.864 12.8787C164.853 12.8819 164.848 12.8833 164.848 12.8832C164.849 12.8831 164.858 12.8807 164.878 12.8772C164.898 12.8737 164.931 12.8684 164.979 12.8632L166.351 25.294ZM171.046 23.761L177.348 34.5637C171.922 37.729 164.955 35.897 161.788 30.469L172.591 24.1675L183.394 17.8659C179.599 11.3599 171.249 9.16415 164.745 12.9583L171.046 23.761ZM172.591 24.1675L161.786 30.4644C158.627 25.0448 160.45 18.0786 165.883 14.9095L172.185 25.7122L178.486 36.5149C184.997 32.7171 187.183 24.368 183.397 17.8705L172.591 24.1675ZM172.185 25.7122L165.883 14.9095C165.947 14.872 165.948 14.8756 165.887 14.9037C165.829 14.93 165.746 14.9649 165.646 15.0001C165.546 15.0351 165.451 15.0627 165.368 15.0823C165.285 15.1021 165.237 15.1083 165.227 15.1094L166.599 27.5402L167.971 39.971C172.272 39.4963 176.006 37.9616 178.486 36.5149L172.185 25.7122ZM166.599 27.5402L165.227 15.1094C165.245 15.1074 165.273 15.1052 165.313 15.1055L165.243 27.6116L165.172 40.1177C166.133 40.1231 167.07 40.0705 167.971 39.9711L166.599 27.5402ZM165.243 27.6116L157.24 37.2224C157.799 37.6881 158.126 38.0302 158.273 38.2028L167.802 30.1031L177.331 22.0033C176.081 20.5334 174.68 19.1953 173.245 18.0007L165.243 27.6116ZM167.802 30.1031L158.273 38.2027C166.602 48.0017 178.452 47.0676 183.335 45.6313L179.807 33.6332L176.278 21.635C176.503 21.5689 176.639 21.5442 176.682 21.5369C176.733 21.5284 176.744 21.5291 176.723 21.5303C176.668 21.5336 176.612 21.5286 176.593 21.5251C176.583 21.5233 176.687 21.5405 176.859 21.6326C177.054 21.7372 177.225 21.8795 177.331 22.0034L167.802 30.1031ZM179.807 33.6332L180.123 46.1355C180.629 46.1227 182.727 46.2306 185.588 47.0015C188.365 47.7496 191.363 48.9907 194.018 50.8815L201.274 40.6953L208.529 30.5091C197.618 22.7364 185.297 20.9839 179.49 21.1309L179.807 33.6332ZM201.274 40.6953L194.017 50.8814C194.663 51.3411 195.97 52.9317 196.932 56.6751C197.836 60.1897 197.969 63.8604 197.835 65.8305L210.312 66.6811L222.79 67.5316C223.079 63.2875 222.817 56.9028 221.157 50.447C219.556 44.2198 216.132 35.9247 208.53 30.5092L201.274 40.6953ZM210.312 66.6811L200.157 73.9802C206.431 82.7097 216.128 83.4546 220.788 82.6989L218.786 70.3538L216.784 58.0088C217.418 57.906 217.815 57.9208 217.994 57.9337C218.21 57.9494 218.428 57.9869 218.663 58.0619C219.197 58.2317 219.941 58.65 220.468 59.3819L210.312 66.6811ZM218.786 70.3538L223.029 82.1185C221.658 82.6127 220.805 82.531 220.744 82.5257C220.576 82.5108 220.819 82.5052 221.449 82.7804C222.688 83.3222 225.424 84.9646 229.01 89.5241L238.84 81.7932L248.671 74.0623C238.029 60.5294 224.814 54.8855 214.544 58.5891L218.786 70.3538ZM238.84 81.7932L229.01 89.524C230.811 91.815 231.023 93.8276 230.625 95.9228C230.143 98.4556 228.702 100.957 227.44 102.451L236.996 110.52L246.551 118.588C249.9 114.622 253.733 108.294 255.197 100.595C256.744 92.4593 255.573 82.839 248.671 74.0623L238.84 81.7932ZM236.996 110.52L235.289 122.909C236.943 123.137 239.63 124 241.727 125.624L249.385 115.736L257.042 105.848C250.842 101.047 243.811 98.8339 238.702 98.1302L236.996 110.52ZM249.385 115.736L241.727 125.624C242.74 126.408 243.499 127.28 244.016 128.226C244.509 129.127 244.935 130.37 244.98 132.187L257.483 131.877L269.985 131.567C269.69 119.675 263.877 111.141 257.042 105.848L249.385 115.736ZM257.483 131.877L244.98 132.187C245.035 134.401 244.674 135.597 244.447 136.128C244.24 136.612 244.052 136.773 243.951 136.851L251.597 146.748L259.242 156.645C266.527 151.018 270.247 142.155 269.985 131.567L257.483 131.877ZM251.597 146.748L243.952 136.85C243.947 136.854 243.912 136.88 243.835 136.928L250.379 147.585L256.924 158.242C257.672 157.783 258.452 157.255 259.242 156.645L251.597 146.748ZM250.379 147.585L240.35 155.056C240.751 155.595 241.271 156.559 241.469 158.043C241.662 159.493 241.606 161.87 240.289 165.323L251.975 169.779L263.66 174.235C269.119 159.92 266.221 147.917 260.409 140.114L250.379 147.585ZM251.975 169.779L240.289 165.323C240.059 165.928 239.847 166.251 239.734 166.399C239.625 166.543 239.548 166.604 239.499 166.639C239.408 166.703 239.029 166.937 238.059 167.046C237.056 167.158 235.737 167.096 234.219 166.796C232.717 166.499 231.342 166.033 230.349 165.598L225.33 177.053L220.31 188.508C225.12 190.616 232.813 192.805 240.851 191.902C249.765 190.901 259.21 185.904 263.66 174.235L251.975 169.779ZM225.33 177.053L215.059 184.188C213.924 182.555 213.458 181.011 213.255 180.055C213.047 179.071 213.028 178.302 213.036 177.888C213.05 177.098 213.174 176.785 213.067 177.204C212.862 178.01 212.195 180.033 210.419 183.839L221.752 189.128L233.085 194.416C235.161 189.967 236.552 186.342 237.308 183.368C237.682 181.898 238.012 180.163 238.044 178.326C238.07 176.873 237.975 173.335 235.601 169.918L225.33 177.053ZM221.752 189.128L210.419 183.839C210.138 184.439 209.994 184.433 210.162 184.319C210.265 184.249 210.194 184.345 209.731 184.405C209.233 184.469 208.516 184.458 207.656 184.304C206.794 184.15 206.095 183.907 205.738 183.75L200.709 195.201L195.679 206.651C199.702 208.418 206.097 210.098 212.949 209.209C220.515 208.228 228.616 203.993 233.085 194.416L221.752 189.128ZM200.709 195.201L189.311 190.053C189.078 190.569 188.901 190.818 188.842 190.894C188.788 190.964 188.827 190.898 188.985 190.781C189.06 190.725 189.15 190.667 189.253 190.612C189.356 190.556 189.461 190.509 189.566 190.47C189.78 190.391 189.949 190.362 190.044 190.353C190.133 190.344 190.147 190.352 190.076 190.345C190.005 190.337 189.882 190.316 189.718 190.269C189.553 190.223 189.386 190.161 189.235 190.093C189.079 190.024 188.99 189.97 188.977 189.962L182.349 200.568L175.721 211.173C179.376 213.458 185.54 215.949 192.562 215.238C200.726 214.412 208.002 209.437 212.107 200.348L200.709 195.201ZM182.349 200.568L172.096 193.407C171.777 193.863 171.612 193.928 171.709 193.868C171.796 193.814 171.952 193.751 172.141 193.725C172.301 193.703 172.483 193.707 172.714 193.762C172.891 193.805 173.431 193.958 174.175 194.517L166.672 204.522L159.169 214.527C167.601 220.851 183.282 221.074 192.602 207.729L182.349 200.568ZM166.672 204.522L156.375 197.425C155.663 198.458 155.574 198.111 156.46 197.763C156.866 197.603 157.308 197.514 157.733 197.498C158.141 197.483 158.438 197.538 158.593 197.577C158.742 197.615 158.779 197.644 158.714 197.61C158.649 197.577 158.542 197.513 158.411 197.415C158.281 197.316 158.185 197.227 158.14 197.181C158.076 197.115 158.182 197.21 158.39 197.517L148.03 204.522L137.67 211.527C140.173 215.229 145.417 220.027 152.402 221.812C156.251 222.795 160.877 222.904 165.618 221.039C170.32 219.188 174.08 215.812 176.97 211.619L166.672 204.522ZM148.03 204.522L139.575 195.307C137.196 197.49 135.828 197.966 135.503 198.055C135.343 198.099 135.515 198.059 135.668 198.112C135.669 198.112 135.644 198.104 135.592 198.078C135.54 198.053 135.464 198.011 135.363 197.947C135.154 197.815 134.88 197.613 134.539 197.313C133.708 196.583 133.239 196.01 132.033 194.717L122.89 203.251L113.748 211.784C114.614 212.713 119.722 219.047 127.449 221.736C137.032 225.07 147.174 222.28 156.485 213.737L148.03 204.522ZM122.89 203.251L110.401 203.899C110.302 202.003 110.862 200.572 111.301 199.789C111.518 199.402 111.721 199.14 111.851 198.988C111.982 198.835 112.071 198.759 112.09 198.743C112.114 198.722 111.993 198.824 111.711 198.962C111.436 199.096 111.138 199.201 110.874 199.262L113.711 211.442L116.547 223.623C120.683 222.66 124.873 220.693 128.254 217.83C131.346 215.212 135.765 210.021 135.38 202.602L122.89 203.251ZM113.711 211.442L110.874 199.262C109.364 199.614 109.089 199.231 109.556 199.468C109.727 199.554 110.062 199.761 110.456 200.208C110.794 200.591 111.484 201.507 111.873 203.085L99.7292 206.076L87.5856 209.066C90.4149 220.556 103.576 226.643 116.547 223.623L113.711 211.442ZM99.7292 206.076L96.0625 194.119C90.26 195.898 88.1458 194.656 87.8064 194.45C87.0432 193.985 86.7439 193.243 86.7466 193.255L74.5896 196.19L62.4325 199.125C63.7536 204.597 67.5506 211.397 74.7908 215.809C82.4547 220.479 92.2512 221.45 103.396 218.032L99.7292 206.076ZM74.5896 196.19L71.7254 184.016C69.3294 184.579 68.1405 184.3 67.6906 184.148C67.2219 183.989 66.7016 183.679 66.0877 182.947C64.5742 181.145 63.5373 177.974 63.3244 175.49L50.8638 176.559L38.4032 177.627C38.8965 183.381 41.0796 192.06 46.931 199.03C49.9996 202.685 54.1979 205.992 59.6879 207.846C65.1969 209.706 71.2068 209.833 77.4538 208.364L74.5896 196.19ZM50.8638 176.559L41.2561 168.552C38.1559 172.273 35.9364 176.544 35.2216 181.298C34.4948 186.133 35.4683 190.525 37.2501 194.131C40.5465 200.803 46.4901 204.74 50.4241 206.556L55.665 195.201L60.9059 183.846C60.8057 183.799 60.6358 183.712 60.4309 183.582C60.2278 183.453 60.0374 183.312 59.8763 183.174C59.714 183.035 59.6212 182.932 59.5833 182.886C59.5456 182.84 59.5955 182.891 59.6751 183.052C59.7588 183.221 59.8711 183.506 59.9377 183.889C60.0065 184.284 60.0074 184.676 59.9562 185.017C59.906 185.351 59.8262 185.501 59.8528 185.446C59.885 185.38 60.0418 185.081 60.4714 184.565L50.8638 176.559ZM55.665 195.201L53.179 182.944C49.1409 183.763 47.6576 183.067 47.4377 182.954C47.2585 182.862 46.7243 182.562 46.1119 181.096C44.6025 177.484 44.5544 171.259 45.6091 166.044L33.351 163.565L21.0929 161.086C19.6056 168.44 18.7382 180.462 23.0333 190.74C25.323 196.22 29.3469 201.775 35.9944 205.196C42.6011 208.595 50.2129 209.068 58.151 207.458L55.665 195.201ZM33.351 163.565L39.5 152.675C38.3899 152.048 37.6445 151.457 37.1438 150.972L28.4335 159.946L19.7232 168.92C21.8919 171.025 24.3941 172.87 27.2021 174.455L33.351 163.565ZM28.4335 159.946L33.4363 148.484C32.9286 148.262 32.2628 147.914 31.5757 147.452C30.8876 146.989 30.3025 146.496 29.8587 146.02L20.7109 154.548L11.5631 163.076C15.3906 167.181 19.9229 169.877 23.4308 171.408L28.4335 159.946ZM20.7109 154.548L29.859 146.02C29.3502 145.474 29.1402 145.069 29.0673 144.874C29.0352 144.788 29.0267 144.736 29.0233 144.703C29.0203 144.674 29.0135 144.587 29.043 144.414L16.7157 142.306L4.38837 140.198C2.65845 150.313 7.0369 158.22 11.5627 163.075L20.7109 154.548ZM16.7157 142.306L29.0429 144.415C29.093 144.122 29.1572 143.945 29.1989 143.849C29.241 143.752 29.2836 143.683 29.3272 143.625C29.4147 143.509 29.6062 143.31 29.9975 143.086L23.773 132.239L17.5484 121.391C11.6826 124.757 5.98855 130.844 4.38848 140.197L16.7157 142.306ZM23.773 132.239L29.9974 143.086C30.0932 143.031 30.1984 142.976 30.3129 142.921L24.9591 131.619L19.6053 120.317C18.9231 120.64 18.2355 120.997 17.5485 121.391L23.773 132.239ZM24.9591 131.619L31.8286 121.168C31.7407 121.111 31.677 121.062 31.632 121.023L23.5287 130.549L15.4254 140.075C16.3107 140.828 17.2062 141.489 18.0896 142.07L24.9591 131.619ZM23.5287 130.549L31.6323 121.023C31.4579 120.875 31.2338 120.633 31.0196 120.149C30.7983 119.648 30.4791 118.638 30.4623 116.861L17.9566 116.979L5.45081 117.097C5.54293 126.86 9.21794 134.794 15.4252 140.075L23.5287 130.549ZM17.9566 116.979L30.4623 116.861C30.4496 115.512 30.737 114.726 30.9927 114.243C31.275 113.71 31.7306 113.159 32.4417 112.619L24.877 102.66L17.3124 92.701C10.7675 97.6724 5.34473 105.833 5.45081 117.097L17.9566 116.979ZM24.877 102.66L32.4415 112.619C33.1652 112.07 34.0802 111.587 35.0963 111.219C36.1242 110.846 37.0155 110.679 37.5183 110.627L36.2421 98.1862L34.966 85.7452C30.1411 86.2401 23.3063 88.1484 17.3126 92.7009L24.877 102.66ZM36.2421 98.1862L37.5158 110.627C37.3284 110.647 37.1756 110.658 37.079 110.664C37.0296 110.668 36.989 110.67 36.9619 110.672C36.9357 110.673 36.9154 110.674 36.9114 110.674C36.911 110.674 36.9058 110.675 36.9109 110.674C36.9132 110.674 36.9194 110.674 36.9271 110.673C36.9422 110.673 36.9721 110.671 37.0095 110.669C37.082 110.665 37.2133 110.656 37.3769 110.642L36.2715 98.1842L35.166 85.7269C35.3248 85.7128 35.4512 85.7047 35.5188 85.7007C35.5538 85.6986 35.5812 85.6971 35.5938 85.6965C35.6001 85.6961 35.6181 85.6952 35.6023 85.696C35.5957 85.6963 35.573 85.6975 35.5443 85.6992C35.5148 85.7008 35.4717 85.7034 35.4199 85.7068C35.3184 85.7136 35.1608 85.7252 34.9685 85.7449L36.2421 98.1862ZM36.2715 98.1842L45.6293 106.481C45.908 106.167 46.1813 105.865 46.4521 105.575L37.3052 97.046L28.1582 88.5171C27.7237 88.9832 27.3088 89.4416 26.9136 89.8874L36.2715 98.1842ZM37.3052 97.046L46.4521 105.575C49.2255 102.6 53.8813 99.9553 58.9496 98.0327L54.514 86.3394L50.0784 74.6461C43.4061 77.1771 34.6838 81.5187 28.1583 88.5171L37.3052 97.046ZM54.514 86.3394L63.316 77.4549C62.207 76.3563 60.2729 73.6329 60.5308 68.6281L48.0411 67.9845L35.5513 67.3408C34.8898 80.1774 40.0791 89.6432 45.7121 95.2239L54.514 86.3394ZM48.0411 67.9845L60.5308 68.6285C60.5539 68.1798 60.6264 67.924 60.6699 67.801C60.7135 67.678 60.7637 67.5869 60.8285 67.4981C60.9676 67.3073 61.3298 66.9272 62.1332 66.5096L56.3656 55.4127L50.5979 44.3158C43.4369 48.0377 36.1652 55.4357 35.5513 67.3404L48.0411 67.9845ZM56.3656 55.4127L62.133 66.5097C62.9453 66.0875 64.0129 65.7253 65.238 65.4859C66.4608 65.2469 67.5599 65.1851 68.2681 65.2021L68.568 52.6994L68.8679 40.1967C64.2038 40.0848 57.1473 40.9119 50.5981 44.3157L56.3656 55.4127ZM68.568 52.6994L68.2676 65.2021C67.6676 65.1877 67.209 65.1265 66.9984 65.0953L68.8298 52.7238L70.6613 40.3524C70.2794 40.2958 69.646 40.2154 68.8684 40.1967L68.568 52.6994ZM68.8298 52.7238L79.3514 59.4844C80.848 57.1552 82.7887 54.7004 85.2392 52.1041L76.1441 43.52L67.049 34.9359C63.7405 38.4413 60.7875 42.1049 58.3083 45.9632L68.8298 52.7238ZM76.1441 43.52L85.2391 52.1041C86.8117 50.438 89.8657 49.0764 94.9271 48.8734C99.8518 48.6759 104.797 49.688 107.518 50.5894L111.451 38.7178L115.384 26.8461C110.29 25.1583 102.327 23.5439 93.9247 23.8809C85.659 24.2124 74.9671 26.5465 67.049 34.9358L76.1441 43.52ZM111.451 38.7178L123.082 34.1227C122.713 33.1867 122.149 31.2268 121.998 29.3117C121.925 28.398 121.973 27.8018 122.026 27.5095C122.078 27.2182 122.071 27.5688 121.643 28.1704L111.451 20.9227L101.259 13.6749C96.9175 19.78 96.7143 26.8719 97.0628 31.2819C97.4387 36.0399 98.6827 40.4355 99.8194 43.3128L111.451 38.7178ZM111.451 20.9227L121.643 28.1704C120.07 30.3828 117.536 30.6013 115.732 29.9041C114.777 29.5347 112.081 28.1259 110.961 24.4277C109.67 20.1664 111.716 17.1979 112.248 16.5958L121.62 24.8768L130.992 33.1578C134.207 29.5193 136.888 23.7441 134.9 17.179C133.083 11.1771 128.356 7.96782 124.752 6.57452C117.653 3.82963 107.351 5.10742 101.259 13.6749L111.451 20.9227ZM121.62 24.8768L112.249 16.5952C103.605 26.3758 105.701 37.7218 108.663 43.1529L119.643 37.1642L130.622 31.1756C130.936 31.7511 131.025 32.1036 131.05 32.2105C131.085 32.3602 131.097 32.4912 131.091 32.6261C131.085 32.778 131.053 32.945 130.993 33.0987C130.928 33.2654 130.882 33.2823 130.991 33.1584L121.62 24.8768ZM119.643 37.1642L132.027 38.9025C132.034 38.8542 132.04 38.8112 132.045 38.7749C132.049 38.7387 132.053 38.7076 132.056 38.6836C132.059 38.6598 132.061 38.6404 132.063 38.6287C132.064 38.6228 132.064 38.6179 132.064 38.615C132.065 38.6135 132.065 38.6123 132.065 38.6115C132.065 38.6111 132.065 38.6108 132.065 38.6106C132.065 38.6105 132.065 38.6105 132.065 38.6104C132.065 38.6104 132.065 38.6104 132.065 38.6103C132.065 38.61 132.065 38.6121 132.065 38.6148C132.064 38.6177 132.064 38.6225 132.063 38.6284C132.062 38.6401 132.059 38.6593 132.056 38.683C132.053 38.707 132.049 38.738 132.045 38.7741C132.04 38.8103 132.034 38.8532 132.027 38.9015L119.645 37.1486L107.262 35.3957C107.255 35.4453 107.249 35.4895 107.244 35.527C107.239 35.5644 107.235 35.5967 107.232 35.622C107.229 35.6471 107.226 35.6675 107.225 35.6805C107.224 35.6871 107.223 35.6925 107.223 35.696C107.222 35.6994 107.222 35.7022 107.222 35.7025C107.222 35.7036 107.222 35.7018 107.222 35.6998C107.223 35.6975 107.223 35.6933 107.224 35.688C107.225 35.6776 107.227 35.6596 107.23 35.6371C107.233 35.6143 107.236 35.5846 107.241 35.5497C107.245 35.5147 107.251 35.473 107.258 35.426L119.643 37.1642ZM119.645 37.1486L130.572 31.0655C131.83 33.3253 132.334 36.059 131.793 38.8021L119.523 36.3806L107.254 33.9592C106.605 37.2484 107.208 40.5208 108.717 43.2317L119.645 37.1486ZM119.523 36.3806L131.792 38.806C133.509 30.1216 138.658 25.9406 142.205 24.9948L138.982 12.9108L135.76 0.826796C121.381 4.66114 110.476 17.6599 107.254 33.9553L119.523 36.3806ZM25.8814 135.913L19.6567 125.066C14.6601 127.933 9.91178 133.041 8.5654 140.911L20.8926 143.02L33.2198 145.129C33.2131 145.168 33.1828 145.313 33.0918 145.525C33.0004 145.739 32.8737 145.959 32.7177 146.166C32.4 146.588 32.1135 146.756 32.1062 146.76L25.8814 135.913ZM20.8926 143.02L8.56529 140.912C7.18566 148.979 10.4439 155.45 14.2271 159.704L23.5727 151.394L32.9182 143.083C32.7385 142.881 32.9013 142.998 33.065 143.465C33.1491 143.705 33.2181 143.996 33.2463 144.319C33.2748 144.643 33.2552 144.922 33.2199 145.129L20.8926 143.02ZM23.5727 151.394L35.7825 148.687C35.4345 147.117 35.7475 144.474 37.296 141.187L25.9821 135.858L14.6682 130.528C11.8906 136.425 9.34588 145.003 11.3629 154.101L23.5727 151.394ZM25.9821 135.858L19.8593 124.953C19.9 124.93 19.9307 124.913 19.9419 124.907C19.9477 124.903 19.9514 124.901 19.9498 124.902C19.949 124.903 19.9482 124.903 19.9455 124.905C19.9433 124.906 19.9396 124.908 19.9355 124.91C19.9209 124.918 19.8844 124.938 19.8402 124.963C19.7947 124.988 19.7315 125.023 19.657 125.066L25.8814 135.913L32.1059 146.761C32.0766 146.777 32.0505 146.792 32.0285 146.805C32.0064 146.817 31.9876 146.827 31.9728 146.836C31.9582 146.844 31.9466 146.85 31.9393 146.854C31.9356 146.856 31.9327 146.858 31.9308 146.859C31.9299 146.859 31.9292 146.86 31.9287 146.86C31.9282 146.86 31.9279 146.86 31.9279 146.86C31.9279 146.86 31.9281 146.86 31.9286 146.86C31.929 146.86 31.9296 146.859 31.9306 146.859C31.9321 146.858 31.9355 146.856 31.9388 146.854C31.9457 146.851 31.9578 146.844 31.972 146.836C31.9866 146.828 32.0055 146.818 32.0274 146.806C32.0494 146.794 32.0756 146.779 32.1049 146.763L25.9821 135.858ZM243.269 116.892L234.012 125.3C235.909 127.389 236.31 129.314 236.22 131.123C236.11 133.3 235.227 135.357 234.519 136.414L244.914 143.369L255.308 150.324C260.491 142.578 266.766 124.161 252.527 108.483L243.269 116.892ZM244.914 143.369L242.937 155.718C241.806 155.537 241.041 155.215 240.71 155.061C240.332 154.885 240.118 154.74 240.051 154.693L247.251 144.467L254.45 134.241C252.756 133.049 250.132 131.539 246.89 131.02L244.914 143.369ZM247.251 144.467L252.648 155.749C253.943 155.13 255.308 154.33 256.652 153.292L249.007 143.395L241.361 133.497C241.586 133.323 241.765 133.228 241.854 133.185L247.251 144.467ZM249.007 143.395L256.652 153.292C262.665 148.647 265.985 141.191 265.749 131.673L253.247 131.983L240.745 132.292C240.787 134.007 240.507 134.566 240.558 134.448C240.581 134.393 240.657 134.239 240.815 134.038C240.971 133.838 241.159 133.654 241.361 133.497L249.007 143.395ZM253.247 131.983L265.749 131.673C265.491 121.254 260.445 113.843 254.448 109.198L246.791 119.086L239.133 128.974C239.753 129.454 240.094 129.884 240.294 130.251C240.47 130.573 240.717 131.164 240.745 132.293L253.247 131.983ZM246.791 119.086L254.448 109.198C252.59 107.759 250.679 106.611 248.848 105.699L243.269 116.892L237.691 128.085C238.255 128.367 238.739 128.669 239.133 128.974L246.791 119.086ZM32.1287 103.5L27.7756 91.7762C25.2858 92.7006 22.5122 94.0719 19.8754 96.0747L27.4399 106.034L35.0043 115.993C35.3212 115.752 35.8228 115.469 36.4819 115.225L32.1287 103.5ZM27.4399 106.034L19.8753 96.0747C14.2252 100.366 9.59581 107.332 9.68732 117.056L22.1931 116.939L34.6988 116.821C34.6955 116.464 34.7331 116.278 34.7462 116.223C34.7586 116.17 34.7618 116.179 34.7419 116.217C34.6928 116.31 34.7004 116.224 35.0044 115.993L27.4399 106.034ZM22.1931 116.939L9.68732 117.057C9.76919 125.734 13.0027 132.451 18.1706 136.848L26.2742 127.322L34.3779 117.796C34.5084 117.907 34.6282 118.033 34.7277 118.165C34.8286 118.299 34.8777 118.397 34.8916 118.429C34.9287 118.512 34.7108 118.089 34.6988 116.821L22.1931 116.939ZM26.2742 127.322L18.1711 136.848C20.5937 138.909 23.1921 140.238 25.5707 141.062L29.6646 129.245L33.7585 117.428C33.8875 117.472 34.1137 117.572 34.3773 117.796L26.2742 127.322ZM29.6646 129.245L40.6578 123.282C38.8095 119.874 38.6933 116.17 42.5179 110.463L32.1287 103.5L21.7396 96.5381C14.2666 107.689 11.2196 121.47 18.6714 135.208L29.6646 129.245ZM66.3901 56.9975L65.4182 44.529C61.8214 44.8094 57.0608 45.7321 52.5522 48.0753L58.3197 59.1724L64.0871 70.2694C64.3705 70.1222 64.8336 69.9365 65.4754 69.7738C66.1082 69.6133 66.7688 69.5122 67.3621 69.4659L66.3901 56.9975ZM58.3197 59.1724L52.552 48.0755C46.3358 51.3064 40.2993 57.546 39.783 67.5582L52.2727 68.2023L64.7624 68.8465C64.7645 68.8052 64.7608 68.9463 64.6715 69.2042C64.5806 69.4664 64.4411 69.7342 64.2693 69.9709C63.9295 70.4388 63.702 70.4696 64.0873 70.2693L58.3197 59.1724ZM52.2727 68.2023L39.783 67.5586C39.0392 81.9892 46.486 91.342 52.3337 95.1965L59.2166 84.7546L66.0995 74.3127C66.5649 74.6195 66.1127 74.4187 65.6038 73.4746C65.1859 72.6995 64.6383 71.2547 64.7624 68.846L52.2727 68.2023ZM59.2166 84.7546L62.7613 96.7481C64.4361 96.2531 65.778 95.9495 66.6234 95.7983L64.4214 83.4874L62.2194 71.1765C60.3364 71.5133 58.0913 72.0461 55.6719 72.7612L59.2166 84.7546ZM64.4214 83.4874L76.342 79.705C74.3215 73.3373 74.862 68.0303 77.5808 62.581L66.3901 56.9975L55.1994 51.4139C49.6012 62.6341 48.4987 74.6567 52.5008 87.2698L64.4214 83.4874ZM150.644 17.9739L157.673 7.63024C153.117 4.53376 145.407 0.593281 136.342 3.01046L139.565 15.0945L142.787 27.1786C142.465 27.2646 142.159 27.2895 141.919 27.2806C141.693 27.2723 141.6 27.237 141.668 27.2569C141.742 27.2787 141.949 27.3489 142.298 27.5254C142.646 27.7015 143.084 27.9572 143.614 28.3176L150.644 17.9739ZM139.565 15.0945L136.342 3.01052C126.43 5.65386 118.114 13.1029 113.284 22.9752L124.518 28.4714L135.752 33.9675C137.886 29.606 140.873 27.689 142.787 27.1785L139.565 15.0945ZM124.518 28.4714L132.931 37.7254C134.522 36.2783 137.772 34.4999 143.175 32.9358L139.698 20.9227L136.22 8.90955C129.23 10.933 121.779 14.0602 116.106 19.2174L124.518 28.4714ZM139.698 20.9227L143.175 32.9358C145.046 32.3942 147.909 32.5261 151.365 33.8556L155.855 22.1831L160.345 10.5105C153.69 7.95047 144.999 6.3686 136.22 8.90946L139.698 20.9227ZM155.855 22.1831L164.259 12.9214C162.539 11.3606 160.293 9.41077 157.673 7.63038L150.644 17.9739L143.614 28.3174C144.794 29.1198 146.031 30.156 147.451 31.4447L155.855 22.1831Z" fill="white"/>
<path fill-rule="evenodd" clip-rule="evenodd" d="M138.983 12.9103C143.699 11.6527 148.187 13.5712 151.914 16.1043C155.625 18.6262 158.902 21.9965 161.061 23.8856C162.551 25.1888 164.452 25.503 166.351 25.2935C168.258 25.0829 170.029 24.3542 171.047 23.7605C171.586 23.4464 172.277 23.6281 172.591 24.1669C172.906 24.7058 172.724 25.3972 172.185 25.7117C170.943 26.436 168.872 27.2888 166.599 27.5397C166.158 27.5885 165.703 27.6137 165.242 27.6111C166.239 28.4413 167.104 29.2811 167.802 30.1026C171.643 34.6219 177.406 34.3398 179.807 33.6336C183.526 33.5396 193.026 34.8199 201.274 40.6948C209.522 46.57 210.736 60.4674 210.313 66.6815C212.911 70.2965 217.044 70.6356 218.786 70.3533C221.657 69.3176 229.689 70.1555 238.841 81.7927C247.545 92.8607 241.606 105.06 236.995 110.52C240.376 110.986 245.236 112.524 249.385 115.737C253.726 119.098 257.295 124.31 257.483 131.877C257.666 139.257 255.163 143.993 251.597 146.748C251.2 147.055 250.791 147.332 250.379 147.586C253.576 151.879 255.946 159.368 251.975 169.779C247.003 182.817 232.443 180.17 225.33 177.053C225.87 177.83 225.604 180.873 221.752 189.128C217.007 199.296 205.745 197.413 200.708 195.2C195.963 205.708 186.491 203.157 182.348 200.567C177.377 207.685 169.874 206.922 166.672 204.521C159.47 214.973 150.289 207.864 148.029 204.521C134.33 217.091 126.186 206.781 122.891 203.25C123.079 206.875 118.513 210.324 113.711 211.442C105.463 213.363 100.482 209.135 99.7285 206.075C82.7811 211.272 75.908 201.65 74.5899 196.189C57.3034 200.257 51.5692 184.797 50.8631 176.558C42.9543 186.049 50.7693 192.941 55.6653 195.2C31.7129 200.059 30.8083 176.135 33.3503 163.565C31.3916 162.459 29.7684 161.242 28.4338 159.946C26.0986 158.927 23.1105 157.122 20.7112 154.548C17.9497 151.586 15.8379 147.441 16.716 142.307C17.5756 137.281 20.5233 134.104 23.7732 132.239C24.1646 132.014 24.561 131.808 24.9594 131.62C24.4736 131.3 23.9942 130.945 23.529 130.55C20.3728 127.865 18.0185 123.515 17.9568 116.979C17.8931 110.228 21.0029 105.604 24.8773 102.661C28.6711 99.779 33.1882 98.4999 36.2424 98.1867C36.2522 98.1857 36.262 98.1856 36.2717 98.1847C36.6088 97.8046 36.9527 97.4238 37.3054 97.0455C41.955 92.0591 48.6439 88.5657 54.5143 86.3389C51.1434 82.9992 47.5817 76.9055 48.0413 67.9849C48.3716 61.5767 52.0904 57.6353 56.3658 55.4132C60.5501 53.2384 65.3765 52.6233 68.5683 52.6999C68.6571 52.702 68.7444 52.7106 68.8301 52.7233C70.818 49.6297 73.264 46.5702 76.1434 43.5195C85.634 33.4639 103.636 36.129 111.451 38.7182C109.945 34.905 107.836 26.0074 111.451 20.9231C115.971 14.5678 126.986 18.8044 121.619 24.8773C117.326 29.7355 118.513 35.0934 119.643 37.1647C119.644 37.1596 119.644 37.1541 119.645 37.1491C119.519 36.9233 119.47 36.6535 119.524 36.3801C121.993 23.8903 130.02 15.3004 138.983 12.9103ZM25.8817 135.914C23.5202 137.269 21.502 139.46 20.8929 143.021C20.3248 146.343 21.554 149.124 23.5729 151.394C22.3903 146.061 23.8194 140.45 25.9824 135.858C25.949 135.877 25.915 135.895 25.8817 135.914ZM243.268 116.89C252.026 126.532 248.474 138.049 244.914 143.37C245.537 143.469 246.358 143.837 247.252 144.467C247.855 144.178 248.448 143.827 249.007 143.395C251.315 141.612 253.403 138.273 253.247 131.983C253.096 125.88 250.285 121.793 246.791 119.087C245.664 118.214 244.466 117.487 243.268 116.89ZM32.1271 103.502C30.5532 104.086 28.9164 104.913 27.4401 106.034C24.4721 108.289 22.1441 111.715 22.1933 116.939C22.2447 122.38 24.1511 125.516 26.2745 127.322C27.3544 128.241 28.5407 128.856 29.6659 129.245C25.0156 120.673 26.4791 111.931 32.1271 103.502ZM66.3904 56.9979C63.9177 57.1907 60.9163 57.8235 58.3199 59.1729C55.0278 60.884 52.5076 63.6516 52.273 68.2028C51.7827 77.7155 56.642 83.058 59.2169 84.7551C61.264 84.1501 63.0575 83.7318 64.4217 83.4879C61.4103 73.9974 62.2319 65.3327 66.3904 56.9979ZM150.644 17.9734C147.098 15.5636 143.322 14.0924 139.565 15.094C133.652 16.6709 128 21.3548 124.518 28.4718C128.151 25.1697 133.5 22.717 139.697 20.9231C145.022 19.3817 150.798 20.2388 155.854 22.1835C154.284 20.7588 152.544 19.2648 150.644 17.9734Z" fill="#F18350"/>
<path d="M187.998 144.782C191.614 140.375 192.329 120.537 192.235 111.169C184.439 112.864 177.877 107.544 175.57 104.672C168 104.672 163.754 99.9644 162.577 97.6106C148.567 89.9277 154.103 75.9553 158.622 69.9294C148.002 59.3089 130.47 63.9036 123.032 67.5285C124.962 70.4473 126.93 80.0415 119.36 95.0685C111.79 110.095 98.5992 115.359 92.95 116.112C91.8672 122.655 91.5942 137.833 99.1642 146.194C108.627 156.645 129.952 161.447 151.702 160.599C173.451 159.752 183.479 150.29 187.998 144.782Z" fill="white" stroke="#F18350" stroke-width="1.12927"/>
<path d="M73.319 130.658C75.9176 146.476 91.3494 147.417 98.7404 145.911C91.2834 135.968 91.8672 121.713 93.0912 115.829C88.4306 111.874 70.0707 110.886 73.319 130.658Z" fill="white"/>
<path d="M202.262 133.483C200.907 139.584 193.318 141.58 189.693 141.815C191.162 137.296 192.235 124.444 192.235 115.688C193.93 117.947 198.685 118.983 200.709 119.218C202.545 120.772 203.957 125.856 202.262 133.483Z" fill="white"/>
<path d="M73.319 130.658C75.9176 146.476 91.3494 147.417 98.7404 145.911C91.2834 135.968 91.8672 121.713 93.0912 115.829C88.4306 111.874 70.0707 110.886 73.319 130.658Z" stroke="#F18350" stroke-width="1.12927"/>
<path d="M202.262 133.483C200.907 139.584 193.318 141.58 189.693 141.815C191.162 137.296 192.235 124.444 192.235 115.688C193.93 117.947 198.685 118.983 200.709 119.218C202.545 120.772 203.957 125.856 202.262 133.483Z" stroke="#F18350" stroke-width="1.12927"/>
<path d="M153.114 126.563C152.502 125.904 150.882 124.981 149.3 126.563" stroke="#F18350" stroke-width="1.12927" stroke-linecap="round"/>
<ellipse cx="170.626" cy="119.218" rx="7.34398" ry="14.2643" transform="rotate(1.98603 170.626 119.218)" fill="#F18350"/>
<ellipse cx="121.126" cy="120.49" rx="8.21118" ry="14.6947" transform="rotate(-2.39738 121.126 120.49)" fill="#F18350"/>
<path d="M145.77 134.048C145.958 135.602 147.21 138.652 150.713 138.426C154.215 138.2 155.279 135.413 155.373 134.048" stroke="#F18350" stroke-width="2.25854" stroke-linecap="round"/>
<path d="M127.693 98.1581C125.81 96.0396 120.575 93.0738 114.699 98.1581" stroke="#F18350" stroke-width="2.82317" stroke-linecap="round"/>
</g>
<defs>
<filter id="filter0_d_75_23438" x="0" y="0" width="274" height="232.396" filterUnits="userSpaceOnUse" color-interpolation-filters="sRGB">
<feFlood flood-opacity="0" result="BackgroundImageFix"/>
<feColorMatrix in="SourceAlpha" type="matrix" values="0 0 0 0 0 0 0 0 0 0 0 0 0 0 0 0 0 0 127 0" result="hardAlpha"/>
<feOffset dy="4"/>
<feGaussianBlur stdDeviation="2"/>
<feComposite in2="hardAlpha" operator="out"/>
<feColorMatrix type="matrix" values="0 0 0 0 0 0 0 0 0 0 0 0 0 0 0 0 0 0 0.25 0"/>
<feBlend mode="normal" in2="BackgroundImageFix" result="effect1_dropShadow_75_23438"/>
<feBlend mode="normal" in="SourceGraphic" in2="effect1_dropShadow_75_23438" result="shape"/>
</filter>
</defs>
</svg>
