<svg width="60" height="64" viewBox="0 0 60 64" fill="none" xmlns="http://www.w3.org/2000/svg">
<g clip-path="url(#clip0_75_23563)">
<path d="M50.258 45.2789L44.9152 41.779L40.4582 49.1719L35.2744 47.6672L30.7101 54.5846L30.9439 56.7617L55.7616 52.2205L54.3202 36.8226L50.258 45.2789ZM27.1145 38.6409L31.0968 38.0971C31.7406 38.3846 32.189 38.4942 32.9614 38.6892C34.165 38.9998 35.5568 39.2983 37.6188 38.267C38.0986 38.0308 39.0987 37.1232 39.5026 36.6055L55.8163 33.6675L57.4805 53.6679L29.5308 58.6695L27.1145 38.6409ZM57.4177 31.434L55.8072 31.7386L52.7137 0L0 6.06909L6.49469 58.3991L12.6655 57.5096C12.1725 56.811 11.4052 55.9657 10.0953 54.8841C8.27831 53.3855 8.92008 50.8384 9.99308 49.2302C11.4113 46.5133 18.7188 43.0606 18.3048 38.7183C18.156 37.1392 17.9039 35.0847 16.427 33.6755C16.3714 34.2605 16.4716 34.8224 16.4716 34.8224C16.4716 34.8224 15.8652 34.0544 15.5636 33.0081C15.2639 32.606 15.0281 32.4784 14.7092 31.9416C14.4815 32.5618 14.5118 33.2815 14.5118 33.2815C14.5118 33.2815 14.0158 32.1185 13.9359 31.1365C13.6423 31.5757 13.5684 32.41 13.5684 32.41C13.5684 32.41 12.9246 30.5766 13.0714 29.5886C12.7778 28.7292 11.9063 27.0234 12.1522 23.1476C13.7607 24.2663 17.3027 24.0009 18.6824 21.9816C19.1399 21.3122 19.4547 19.4868 18.4536 15.8884C17.8108 13.5816 16.2195 10.146 15.599 8.84229L15.5251 8.89557C15.8521 9.94595 16.5262 12.1462 16.7854 13.2147C17.5689 16.4513 17.7784 17.579 17.411 19.0717C17.0982 20.3693 16.3481 21.2177 14.4471 22.1665C12.546 23.1184 10.0224 20.8016 9.86351 20.6739C8.01613 19.2124 6.58681 16.8292 6.42788 15.6703C6.26187 14.4028 7.1638 13.6419 7.61831 12.6056C6.96742 12.7895 6.24264 13.1182 6.24264 13.1182C6.24264 13.1182 7.10813 12.2286 8.17505 11.4597C8.61741 11.1692 8.87655 10.9843 9.3422 10.6003C8.66803 10.5892 8.12039 10.6083 8.12039 10.6083C8.12039 10.6083 9.24502 10.0052 10.4101 9.566C9.55781 9.52881 8.74091 9.55997 8.74091 9.55997C8.74091 9.55997 11.2503 8.44526 13.2313 7.62807C14.5938 7.07323 15.925 7.23707 16.673 8.31157C17.6549 9.71878 18.6864 10.4827 20.8719 10.9561C22.2142 10.3651 22.6211 10.0625 24.3075 9.6052C25.7915 7.9839 26.9566 7.77483 26.9566 7.77483C26.9566 7.77483 26.3786 8.30152 26.2237 9.12876C27.0649 8.47039 27.9871 7.92057 27.9871 7.92057C27.9871 7.92057 27.6298 8.35781 27.2967 9.05337L27.3737 9.16796C28.3556 8.58296 29.5096 8.12261 29.5096 8.12261C29.5096 8.12261 29.1796 8.53673 28.7929 9.07247C29.5339 9.06644 31.035 9.10363 31.6181 9.16897C35.0588 9.24435 35.7724 5.52128 37.0924 5.05389C38.7455 4.46789 39.4844 4.11307 42.3016 6.86115C44.7178 9.22123 46.6067 13.4429 45.6684 14.3887C44.8818 15.1737 43.331 14.0821 41.6122 11.9552C40.7042 10.8285 40.0169 9.49664 39.695 7.80397C39.4237 6.37566 38.3669 5.54742 38.3669 5.54742C38.3669 5.54742 38.9793 6.90437 38.9793 8.09949C38.9793 8.75284 39.0613 11.1943 40.1161 12.5654C40.0118 12.7654 39.9632 13.5564 39.8478 13.7082C38.621 12.2357 35.986 11.1823 35.5558 10.8717C37.0104 12.0547 40.3529 14.7727 41.6365 17.379C42.8512 19.8426 42.1355 22.1012 42.75 22.6852C42.9251 22.8521 45.3616 25.8675 45.8303 27.3823C46.6482 30.0218 45.8789 32.797 44.8089 34.5178L41.8197 34.9802C41.3824 34.8596 41.0878 34.7993 40.6961 34.5741C40.9127 34.1942 41.3419 33.2473 41.346 33.0513L41.1769 32.7578C40.2467 34.0665 38.6888 35.337 37.3941 36.0667C35.6996 37.0206 33.7469 36.8729 32.4755 36.4829C28.8678 35.3782 25.4554 32.9568 24.6325 32.3206C24.6325 32.3206 24.6072 32.8282 24.762 32.9427C25.671 33.962 27.7553 35.8044 29.7707 37.09L25.4757 37.5594L27.5063 53.2568C26.6064 53.3845 26.4657 53.4478 25.4807 53.5865C24.6122 50.5399 22.9511 48.5507 21.1351 47.3918C19.5337 46.3695 17.3249 46.1393 15.2113 46.5555L15.0757 46.7123C16.5455 46.5605 18.2805 46.7716 20.0631 47.8923C21.8123 48.9909 23.2224 51.8285 23.7417 53.5362C24.4067 55.7194 24.8663 58.0554 23.0766 60.5311C21.8042 62.2911 18.0892 63.2631 15.0868 61.1593C15.8885 62.4398 16.9716 63.4862 18.4313 63.6832C20.5976 63.9757 22.6535 63.6018 24.0686 62.1594C25.2763 60.9261 25.918 58.3469 25.749 55.631L27.6612 55.3555L28.3515 60.2305L60 56.4461L57.4177 31.434ZM38.1624 18.1952C38.0743 18.3952 37.9346 18.5269 38.1432 19.1782L38.1553 19.2154L38.1887 19.2999L38.2758 19.4949C38.6513 20.2578 39.0633 20.9764 39.7537 21.3443C39.9318 21.3142 40.1171 21.2941 40.3084 21.285C40.9563 21.2569 41.3652 21.3584 41.6233 21.4971C41.6466 21.3685 41.6517 21.1815 41.6375 20.9051C41.5869 19.9391 41.8298 18.2967 39.9602 17.4323C39.2546 17.1076 38.2646 17.2071 37.9346 17.6132C37.9944 17.6213 38.048 17.6333 38.0905 17.6474C38.5906 17.8193 38.2525 17.9902 38.1624 18.1952ZM43.4039 27.2074C43.1589 27.0727 42.0131 27.1259 41.2073 27.2214C39.6727 27.4014 38.0156 27.9291 37.6532 28.2105C36.9932 28.7171 37.2929 29.5996 37.7808 29.9625C39.1483 30.9767 40.3469 31.6572 41.6112 31.4913C42.3876 31.3898 43.0729 30.1685 43.5578 29.0609C43.8898 28.298 43.8898 27.4747 43.4039 27.2074ZM29.8183 19.3903C30.2505 18.9822 27.6632 18.4465 25.6549 19.8065C24.1739 20.8096 24.1263 22.9606 25.5445 24.1799C25.6862 24.3005 25.8037 24.3859 25.912 24.4563C26.326 24.2623 26.7977 24.0673 27.3413 23.8924C28.2584 23.5969 29.0216 23.4441 29.6482 23.3627C29.9479 23.03 30.2971 22.444 30.21 21.3825C30.0906 19.9422 28.9933 20.1703 29.8183 19.3903Z" fill="#632CA6"/>
</g>
<defs>
<clipPath id="clip0_75_23563">
<rect width="60" height="64" fill="white"/>
</clipPath>
</defs>
</svg>
