<svg width="64" height="64" viewBox="0 0 64 64" fill="none" xmlns="http://www.w3.org/2000/svg">
<g clip-path="url(#clip0_75_23545)">
<path d="M49 0H15C6.71573 0 0 6.71573 0 15V49C0 57.2843 6.71573 64 15 64H49C57.2843 64 64 57.2843 64 49V15C64 6.71573 57.2843 0 49 0Z" fill="#31353C"/>
<mask id="mask0_75_23545" style="mask-type:luminance" maskUnits="userSpaceOnUse" x="15" y="7" width="34" height="50">
<path d="M48.59 7H15.25V57H48.59V7Z" fill="white"/>
</mask>
<g mask="url(#mask0_75_23545)">
<path d="M23.5866 56.9998C28.1867 56.9998 31.92 53.2665 31.92 48.6665V40.333H23.5866C18.9866 40.333 15.2533 44.0665 15.2533 48.6665C15.2533 53.2665 18.9866 56.9998 23.5866 56.9998Z" fill="#0ACF83"/>
<path d="M15.2533 32.0003C15.2533 27.4003 18.9866 23.667 23.5866 23.667H31.92V40.3336H23.5866C18.9866 40.3336 15.2533 36.6003 15.2533 32.0003Z" fill="#A259FF"/>
<path d="M15.2533 15.3333C15.2533 10.7333 18.9866 7 23.5866 7H31.92V23.6667H23.5866C18.9866 23.6667 15.2533 19.9333 15.2533 15.3333Z" fill="#F24E1E"/>
<path d="M31.92 7H40.2532C44.8532 7 48.5867 10.7333 48.5867 15.3333C48.5867 19.9333 44.8532 23.6667 40.2532 23.6667H31.92V7Z" fill="#FF7262"/>
<path d="M48.5867 32.0003C48.5867 36.6003 44.8532 40.3336 40.2532 40.3336C35.6532 40.3336 31.92 36.6003 31.92 32.0003C31.92 27.4003 35.6532 23.667 40.2532 23.667C44.8532 23.667 48.5867 27.4003 48.5867 32.0003Z" fill="#1ABCFE"/>
</g>
</g>
<defs>
<clipPath id="clip0_75_23545">
<rect width="64" height="64" fill="white"/>
</clipPath>
</defs>
</svg>
