<svg width="24" height="24" viewBox="0 0 24 24" fill="none" xmlns="http://www.w3.org/2000/svg">
<g clip-path="url(#clip0_75_23497)">
<path d="M22.4895 20.7861H1.506C0.68625 20.7861 0 20.1373 0 19.2996V4.78184C0.000793902 4.38281 0.159764 4.00037 0.442065 3.71835C0.724366 3.43633 1.10697 3.27774 1.506 3.27734H22.4895C23.3092 3.27734 23.9955 3.95234 23.9955 4.78334V19.2808C23.9767 20.1388 23.3092 20.7861 22.4895 20.7861Z" fill="#F2F2F2"/>
<path opacity="0.1" d="M2.99998 20.7863L11.9775 14.2163L12.0345 13.8353L2.77498 7.18359L2.75623 20.4623L2.99998 20.7863Z" fill="#221F1F"/>
<path d="M1.506 20.7862C0.675 20.7862 0 20.1375 0 19.2997V4.76246C0 3.92396 0.675 3.77246 1.506 3.77246C2.337 3.77246 3.012 3.94496 3.012 4.76246V20.7855L1.506 20.7862Z" fill="#D44C3D"/>
<path d="M1.50603 4.00004C2.57328 4.00004 2.78328 4.32404 2.78328 4.76204V20.575H1.50603C0.801028 20.575 0.228779 20.0035 0.228779 19.2978V4.76204C0.210029 4.31204 0.438778 4.00004 1.50603 4.00004ZM1.50603 3.79004C0.675028 3.79079 2.85719e-05 3.96179 2.85719e-05 4.76204V19.279C-0.00279967 19.4776 0.0342224 19.6747 0.108905 19.8587C0.183587 20.0427 0.294412 20.2098 0.434824 20.3502C0.575237 20.4907 0.742384 20.6015 0.926378 20.6762C1.11037 20.7508 1.30748 20.7879 1.50603 20.785H3.01203V4.76204C3.00003 3.94304 2.34453 3.79004 1.50603 3.79004ZM22.4895 4.00004C23.4615 4.00004 23.7668 4.19054 23.7668 4.72454V19.318C23.7668 20.023 23.1953 20.5953 22.4895 20.5953H21.2123V4.72454C21.1935 4.17179 21.5175 4.00004 22.4895 4.00004ZM22.4895 3.79004C21.651 3.79004 20.9835 3.90404 20.9835 4.72379V20.8038H22.4895C23.328 20.8038 23.9955 20.1288 23.9955 19.2978V4.70504C23.9768 3.88529 23.3093 3.79004 22.4895 3.79004Z" fill="#D44C3D"/>
<path d="M22.4895 20.786H20.9835V4.72477C20.9835 3.88627 21.6585 3.79102 22.4895 3.79102C23.3205 3.79102 23.9955 3.90502 23.9955 4.72477V19.3183C23.9871 19.7115 23.8245 20.0857 23.5428 20.3602C23.2611 20.6348 22.8829 20.7877 22.4895 20.786Z" fill="#D44C3D"/>
<path opacity="0.08" d="M16.0665 20.7864L0.133545 5.40016L0.972045 5.74291L12.072 13.7282L23.9948 4.97266V19.3187C23.994 19.5153 23.9544 19.7098 23.8782 19.8911C23.802 20.0724 23.6907 20.2368 23.5508 20.3749C23.4108 20.5131 23.245 20.6222 23.0627 20.696C22.8805 20.7698 22.6854 20.8069 22.4888 20.8052L16.0665 20.7864Z" fill="#221F1F"/>
<path d="M11.9701 14.2354L0.648071 6.02141C-0.0269294 5.52641 -0.209929 4.57391 0.285821 3.90641C0.781571 3.23891 1.73332 3.08666 2.42032 3.58241L11.9881 10.5387L21.6128 3.48791C22.2878 2.99291 23.2141 3.14516 23.7091 3.83066C24.2041 4.50566 24.0518 5.43191 23.3663 5.92691L11.9701 14.2354Z" fill="#D44C3D"/>
<path d="M22.4895 3.42947C22.89 3.42947 23.2898 3.61997 23.538 3.96347C23.9385 4.53497 23.823 5.33597 23.253 5.76347L11.97 13.9692L0.781539 5.85047C0.210039 5.43047 0.0570392 4.61072 0.450039 4.05047C0.678789 3.70772 1.08004 3.49772 1.51729 3.49772C1.80229 3.49772 2.07004 3.57422 2.27929 3.74522L11.8268 10.6827L11.9603 10.7592L12.0938 10.6827L21.7088 3.63797C21.9563 3.50447 22.2038 3.42797 22.4903 3.42797L22.4895 3.42947ZM22.4895 3.20072C22.1843 3.20072 21.8595 3.27722 21.612 3.48572L11.988 10.538L2.40154 3.56297C2.15404 3.37247 1.83004 3.27797 1.50604 3.27797C1.02979 3.29672 0.553539 3.50672 0.267039 3.90797C-0.209211 4.58297 -0.0179608 5.50922 0.648039 6.00422L11.97 14.2355L23.3663 5.92547C23.6869 5.69079 23.9024 5.33957 23.9666 4.94747C24.0307 4.55537 23.9382 4.15378 23.709 3.82922C23.4038 3.42872 22.947 3.19922 22.4895 3.19922V3.20072Z" fill="#D44C3D"/>
</g>
<defs>
<clipPath id="clip0_75_23497">
<rect width="24" height="24" fill="white"/>
</clipPath>
</defs>
</svg>
