<svg width="58" height="64" viewBox="0 0 58 64" fill="none" xmlns="http://www.w3.org/2000/svg">
<g clip-path="url(#clip0_75_23556)">
<path d="M58.0007 55.8722C58.0126 58.1477 57.0423 60.3188 55.3359 61.8344C53.6295 63.35 51.3512 64.0643 49.0795 63.7959C44.9915 63.1942 41.9958 59.6558 42.0954 55.5466V8.30315C41.9967 4.18947 44.9998 0.64934 49.0932 0.0538583C51.3627 -0.210361 53.6372 0.505815 55.3404 2.02093C57.0437 3.53605 58.0122 5.70473 58.0007 7.97752V55.8722Z" fill="#F9AB00"/>
<path d="M7.95258 48.0438C12.3447 48.0438 15.9052 51.5853 15.9052 55.9539C15.9052 60.3225 12.3447 63.864 7.95258 63.864C3.56049 63.864 0 60.3225 0 55.9539C0 51.5853 3.56049 48.0438 7.95258 48.0438ZM28.8775 24.0693C24.4646 24.3099 21.0408 27.9917 21.1432 32.3864V53.6338C21.1432 59.4001 23.694 62.9007 27.4316 63.6469C29.778 64.1199 32.2139 63.5182 34.0652 62.0082C35.9165 60.4983 36.9869 58.2402 36.9802 55.8589V32.0201C36.9841 29.8913 36.1281 27.8502 34.6045 26.3552C33.081 24.8602 31.0175 24.0365 28.8775 24.0693Z" fill="#E37400"/>
</g>
<defs>
<clipPath id="clip0_75_23556">
<rect width="58" height="64" fill="white"/>
</clipPath>
</defs>
</svg>
