<svg width="57" height="64" viewBox="0 0 57 64" fill="none" xmlns="http://www.w3.org/2000/svg">
<g clip-path="url(#clip0_75_23560)">
<path d="M57 22.3525C57 34.1453 51.7333 40.3564 46.0214 44.442L44.9116 45.2071L43.7984 45.9247L42.6897 46.6004L41.5931 47.2397L37.4466 49.5621C37.2307 49.6852 37.0179 49.8077 36.8081 49.93L35.5872 50.664C31.2513 53.3653 28.4938 56.2812 28.2622 62.8818L28.2463 63.8051H15.9761C15.9761 52.3928 20.9097 46.2075 26.4048 42.1174L27.51 41.3263C27.695 41.1989 27.8803 41.0735 28.0658 40.9501L29.1789 40.2324L30.2875 39.5567L32.4604 38.3089L35.5301 36.5951L36.7885 35.8606C41.4694 33.0497 44.4724 30.1764 44.7145 23.2757L44.7303 22.3525H57ZM41.0248 0.0322266C41.0248 11.4436 36.0923 17.6291 30.5971 21.7193L29.4918 22.5104C29.3068 22.6379 29.1215 22.7633 28.936 22.8867L27.8229 23.6043L26.7141 24.2801L24.5409 25.5279L21.4709 27.2419L20.2125 27.9764C20.009 28.0987 19.8086 28.221 19.6115 28.3438L18.4689 29.0885C14.7952 31.6058 12.4971 34.5611 12.2865 40.5618L12.2707 41.4851H0C0 29.3118 5.6122 23.0866 11.533 19.0068L12.6455 18.2661L13.7575 17.57L14.8611 16.9131L19.5539 14.2748L20.8124 13.5402C25.4933 10.729 28.4962 7.85575 28.7383 0.955432L28.7542 0.0322266H41.0248Z" fill="#FF3C00"/>
</g>
<defs>
<clipPath id="clip0_75_23560">
<rect width="57" height="64" fill="white"/>
</clipPath>
</defs>
</svg>
