<svg width="64" height="64" viewBox="0 0 64 64" fill="none" xmlns="http://www.w3.org/2000/svg">
<g clip-path="url(#clip0_75_23568)">
<path d="M49 0H15C6.71573 0 0 6.71573 0 15V49C0 57.2843 6.71573 64 15 64H49C57.2843 64 64 57.2843 64 49V15C64 6.71573 57.2843 0 49 0Z" fill="#330000"/>
<path d="M30.9333 38.0837H21.0133L18.9866 44.3505C18.9333 44.5905 18.7199 44.7505 18.4799 44.7237H13.4666C13.1733 44.7237 13.0933 44.5637 13.1733 44.2437L21.7599 19.5239C21.8399 19.2572 21.9199 18.9639 22.0266 18.6439C22.1333 18.0839 22.1866 17.4972 22.1866 16.9105C22.1599 16.7772 22.2666 16.6439 22.3999 16.6172H22.4799H29.3065C29.52 16.6172 29.6265 16.6972 29.6533 16.8305L39.3865 44.2972C39.4665 44.5905 39.3865 44.7237 39.12 44.7237H33.5465C33.36 44.7505 33.1733 44.6172 33.12 44.4305L30.9333 38.0837ZM22.5599 32.6705H29.3333C29.1733 32.1105 28.96 31.4437 28.72 30.7505C28.48 30.0305 28.24 29.2572 28 28.4572C27.7333 27.6305 27.4933 26.8305 27.2265 26.0037C26.96 25.1772 26.72 24.4039 26.5065 23.6305C26.2933 22.8839 26.1065 22.1905 25.92 21.5505H25.8665C25.6265 22.6972 25.3333 23.8439 24.9599 24.9905C24.5599 26.2705 24.1599 27.6037 23.7333 28.9372C23.3599 30.2972 22.9599 31.5505 22.5599 32.6705Z" fill="#FF9A00"/>
<path d="M45.3333 21.2832C44.4533 21.3098 43.6 20.9632 42.96 20.3498C42.3468 19.6832 42.0268 18.8032 42.0533 17.8965C42.0268 16.9898 42.3733 16.1365 43.0133 15.5232C43.6533 14.9098 44.5068 14.5898 45.3868 14.5898C46.4268 14.5898 47.2268 14.9098 47.8133 15.5232C48.4 16.1632 48.72 17.0165 48.6933 17.8965C48.72 18.8032 48.4 19.6832 47.76 20.3498C47.1468 20.9898 46.24 21.3365 45.3333 21.2832ZM42.3468 44.4298V23.8965C42.3468 23.6298 42.4533 23.5232 42.6933 23.5232H47.9733C48.2133 23.5232 48.32 23.6565 48.32 23.8965V44.4298C48.32 44.7231 48.2133 44.8566 47.9733 44.8566H42.7468C42.48 44.8566 42.3468 44.6966 42.3468 44.4298Z" fill="#FF9A00"/>
</g>
<defs>
<clipPath id="clip0_75_23568">
<rect width="64" height="64" fill="white"/>
</clipPath>
</defs>
</svg>
