<svg width="24" height="24" viewBox="0 0 24 24" fill="none" xmlns="http://www.w3.org/2000/svg">
<g clip-path="url(#clip0_75_23512)">
<path d="M3.86438 4.16992H20.034V20.2375H3.86438V4.16992Z" fill="white"/>
<path d="M4.8 19.2V9.144H7.872V19.2H4.8ZM7.968 6.36C7.992 7.224 7.344 7.92 6.312 7.92C5.352 7.92 4.728 7.224 4.728 6.36C4.728 5.472 5.376 4.8 6.36 4.8C7.344 4.8 7.968 5.472 7.968 6.36ZM16.032 19.2V13.632C16.032 12.336 15.6 11.448 14.472 11.448C13.632 11.448 13.128 12.048 12.888 12.624C12.816 12.84 12.792 13.128 12.792 13.416V19.2H9.72V12.36C9.72 11.112 9.672 10.056 9.648 9.144H12.312L12.456 10.56H12.504C12.912 9.888 13.92 8.928 15.576 8.928C17.592 8.928 19.128 10.296 19.128 13.272V19.2H16.032ZM24 2.112C24 0.96 23.04 0 21.888 0H2.112C0.96 0 0 0.96 0 2.112V21.888C0 23.04 0.96 24 2.112 24H21.888C23.04 24 24 23.04 24 21.888V2.112Z" fill="#1D87BD"/>
</g>
<defs>
<clipPath id="clip0_75_23512">
<rect width="24" height="24" fill="white"/>
</clipPath>
</defs>
</svg>
