<svg width="24" height="24" viewBox="0 0 24 24" fill="none" xmlns="http://www.w3.org/2000/svg">
<g clip-path="url(#clip0_75_23520)">
<path d="M12 23.9928C9.65374 23.9932 7.35903 23.3044 5.40076 22.0121L0.789764 23.4851L2.28451 19.0301C0.796275 16.9886 -0.0038188 14.5266 1.37044e-05 12.0003C1.37044e-05 5.38681 5.37976 0.0078125 11.9925 0.0078125C18.6053 0.0078125 23.985 5.38681 23.985 12.0003C23.985 18.6138 18.6075 23.9928 11.9925 23.9928H12Z" fill="#FEFEFE"/>
<path d="M12.0001 0.00683594C5.38658 0.00683594 0.00720215 5.38641 0.00720215 11.9997C0.00720215 14.6223 0.853288 17.0549 2.29156 19.0293L0.796578 23.4855L5.40568 22.012C7.30201 23.267 9.56547 23.9931 12.005 23.9931C18.6185 23.9931 23.9979 18.6134 23.9979 12.0003C23.9979 5.3872 18.6183 0.00743257 12.005 0.00743257H11.9981L12.0001 0.00683594Z" fill="url(#paint0_linear_75_23520)"/>
<path d="M8.65131 6.09938C8.42631 5.54213 8.24256 5.52187 7.89006 5.49937L7.48806 5.48438C7.03056 5.48438 6.55056 5.61938 6.26106 5.91413C5.90856 6.27413 5.03406 7.11263 5.03406 8.83313C5.03406 10.5536 6.28881 12.2171 6.45906 12.4504C6.63531 12.6754 8.90556 16.2649 12.4313 17.7244C15.1883 18.8666 16.0058 18.7609 16.6336 18.6266C17.5501 18.4294 18.6991 17.7521 18.9886 16.9346C19.2781 16.1171 19.2781 15.4196 19.1926 15.2696C19.1071 15.1196 18.8753 15.0446 18.5228 14.8609C18.1703 14.6771 16.4573 13.8386 16.1326 13.7254C15.8153 13.6054 15.5123 13.6481 15.2723 13.9864C14.9348 14.4589 14.6026 14.9389 14.3348 15.2269C14.1233 15.4519 13.7776 15.4819 13.4888 15.3619C13.1011 15.1999 12.0151 14.8189 10.6763 13.6271C9.63981 12.7046 8.93481 11.5541 8.73006 11.2091C8.52531 10.8566 8.70906 10.6519 8.87106 10.4614C9.04731 10.2424 9.21606 10.0879 9.39306 9.88388C9.57006 9.67988 9.66831 9.57337 9.78081 9.33413C9.90081 9.10912 9.81606 8.86163 9.73131 8.68538C9.64656 8.50912 8.94156 6.78788 8.65281 6.09038L8.65131 6.09938Z" fill="#FEFEFE"/>
</g>
<defs>
<linearGradient id="paint0_linear_75_23520" x1="-90.1422" y1="-40.1747" x2="-90.1422" y2="-39.2948" gradientUnits="userSpaceOnUse">
<stop stop-color="#6EBF61"/>
<stop offset="0.231" stop-color="#50A557"/>
<stop offset="0.522" stop-color="#2A904F"/>
<stop offset="0.812" stop-color="#50A557"/>
<stop offset="1" stop-color="#6EBF63"/>
</linearGradient>
<clipPath id="clip0_75_23520">
<rect width="24" height="24" fill="white"/>
</clipPath>
</defs>
</svg>
